<svg data-v-423bf9ae="" xmlns="http://www.w3.org/2000/svg" viewBox="0 0 600 90" class="iconLeft"><!----><!----><!----><g data-v-423bf9ae="" id="5b21b4b4-0885-4111-bf7c-d59fd87a3442" fill="#FFFFFF" transform="matrix(4.897959232330322,0,0,4.897959232330322,128.09469604492188,15)"><path d="M8.75 12.25L5.25 12.25L5.25 1.75L1.75 1.75L1.75 0L12.25 0L12.25 1.75L8.75 1.75L8.75 12.25ZM19.25 3.50L19.25 5.25L21 5.25L21 7L19.25 7L19.25 12.25L15.75 12.25L15.75 3.50L19.25 3.50ZM21 3.50L26.25 3.50L26.25 5.25L21 5.25L21 3.50ZM40.25 12.25L29.75 12.25L29.75 10.50L28 10.50L28 8.75L29.75 8.75L29.75 7L36.75 7L36.75 5.25L29.75 5.25L29.75 3.50L38.50 3.50L38.50 5.25L40.25 5.25L40.25 12.25ZM31.50 8.75L31.50 10.50L36.75 10.50L36.75 8.75L31.50 8.75ZM54.25 12.25L43.75 12.25L43.75 10.50L42 10.50L42 5.25L43.75 5.25L43.75 3.50L54.25 3.50L54.25 5.25L45.50 5.25L45.50 10.50L54.25 10.50L54.25 12.25ZM59.50 12.25L56 12.25L56 0L59.50 0L59.50 7L63 7L63 5.25L64.75 5.25L64.75 3.50L68.25 3.50L68.25 5.25L66.50 5.25L66.50 7L64.75 7L64.75 8.75L66.50 8.75L66.50 10.50L68.25 10.50L68.25 12.25L64.75 12.25L64.75 10.50L63 10.50L63 8.75L59.50 8.75L59.50 12.25ZM73.50 12.25L70 12.25L70 0L73.50 0L73.50 1.75L75.25 1.75L75.25 3.50L77 3.50L77 1.75L78.75 1.75L78.75 0L82.25 0L82.25 12.25L78.75 12.25L78.75 5.25L77 5.25L77 8.75L75.25 8.75L75.25 5.25L73.50 5.25L73.50 12.25ZM94.50 12.25L87.50 12.25L87.50 10.50L85.75 10.50L85.75 8.75L84 8.75L84 3.50L85.75 3.50L85.75 1.75L87.50 1.75L87.50 0L94.50 0L94.50 1.75L96.25 1.75L96.25 3.50L92.75 3.50L92.75 1.75L89.25 1.75L89.25 3.50L87.50 3.50L87.50 8.75L89.25 8.75L89.25 10.50L92.75 10.50L92.75 8.75L96.25 8.75L96.25 10.50L94.50 10.50L94.50 12.25Z"></path></g><defs data-v-423bf9ae=""><linearGradient data-v-423bf9ae="" gradientTransform="rotate(25)" id="b785214e-6504-4808-8b6c-c8080184fc63" x1="0%" y1="0%" x2="100%" y2="0%"><stop data-v-423bf9ae="" offset="0%" style="stop-color: rgb(33, 105, 15); stop-opacity: 1;"></stop><stop
        offset="100%" style="stop-color: rgb(136, 200, 72); stop-opacity: 1;"></stop></linearGradient></defs><g data-v-423bf9ae="" id="de61eef4-480b-4b7a-b8c3-80e281316733" transform="matrix(1.1671513319015503,0,0,1.1671513319015503,0.6599231362342834,-17.648067474365234)" stroke="none" fill="url(#b785214e-6504-4808-8b6c-c8080184fc63)"><circle cx="25.686" cy="77.131" r="1.213"></circle><circle cx="25.686" cy="81.173" r="1.213"></circle><circle cx="23.665" cy="75.109" r="1.213"></circle><circle cx="21.643" cy="77.131" r="1.213"></circle><circle cx="19.622" cy="83.194" r="1.213"></circle><circle cx="21.643" cy="81.173" r="1.213"></circle><circle cx="19.622" cy="79.152" r="1.213"></circle><circle cx="23.664" cy="79.152" r="1.213"></circle><path d="M31.553 67.264c-.002-.037-.007-.073-.011-.11l-.004-.035a1.802 1.802 0 0 0-.018-.106l-.006-.036c-.007-.035-.016-.069-.024-.103-.003-.012-.005-.025-.009-.037-.008-.031-.018-.061-.028-.092l-.014-.045a2.04 2.04 0 0 0-.032-.083l-.019-.05-.034-.076-.024-.054c-.011-.023-.024-.045-.036-.068-.01-.019-.02-.039-.031-.057l-.037-.06-.038-.061-.037-.052c-.015-.021-.03-.043-.046-.063l-.038-.047-.052-.064-.039-.042-.059-.063-.038-.036-.066-.062-.039-.032-.073-.06-.04-.029-.079-.056-.04-.025-.076-.048-.008-.004-.004-.003-13.567-7.755a2.189 2.189 0 0 0-2.173 0L1.145 65.505l-.007.005-.005.003-.044.027-.076.047-.046.032c-.024.017-.049.034-.072.052l-.043.035-.068.056-.041.038c-.021.02-.043.04-.063.061l-.038.04-.059.064-.035.043a1.15 1.15 0 0 0-.055.067l-.032.045a1.804 1.804 0 0 0-.05.071l-.029.046a2.98 2.98 0 0 0-.046.074l-.026.048c-.014.026-.028.051-.041.078a1.995 1.995 0 0 0-.059.13l-.02.052a2.685 2.685 0 0 0-.031.081l-.016.053c-.009.028-.018.055-.025.083l-.013.054-.02.085-.01.06-.014.082a1.643 1.643 0 0 0-.007.073l-.007.071a4.115 4.115 0 0 0-.004.111l-.001.035v15.592c0 .785.421 1.511 1.102 1.901l13.569 7.763a2.186 2.186 0 0 0 2.187-.006c.028-.016.055-.034.082-.051l13.475-7.709a2.189 2.189 0 0 0 1.102-1.901V67.41a3.49 3.49 0 0 0-.006-.146zm-19.039 3.5h6.572l-1.061.606h-4.451l-1.06-.606zm9.048-1.415H10.04l-1.06-.606h13.644l-1.062.606zm-6.646-6.67h1.767l1.06.606h-3.888l1.061-.606zM11.379 64.7H20.217l1.061.606H10.319l1.06-.606zm-3.536 2.021h15.864v-.026l1.106.633H6.782l1.061-.607zm-3.422 4.46l9.189 5.256v10.548l-9.189-5.258V71.181zm22.758 2.838a1.21 1.21 0 0 0 0 2.18v1.862a1.21 1.21 0 0 0 0 2.18v1.482l-2.312 1.322a1.212 1.212 0 1 0-1.94 1.11l-.402.23a1.213 1.213 0 0 0-2.047 1.171l-.82.47-.037-.002c-.46 0-.859.256-1.065.633l-.567.324v-.618a1.212 1.212 0 0 0 0-2.296V82.32a1.212 1.212 0 0 0 0-2.296v-1.747a1.212 1.212 0 0 0 .397-2.07l.395-.226a1.213 1.213 0 0 0 2.019-1.154l.932-.533c.376-.028.704-.226.907-.519l1.901-1.086a1.213 1.213 0 1 0 1.385-.792l.658-.376c.113.278.326.503.595.634v1.864z"></path><circle cx="58.026" cy="52.875" r="1.213"></circle><circle cx="60.047" cy="58.939" r="1.213"></circle><circle cx="58.026" cy="60.96" r="1.213"></circle><circle cx="58.026" cy="56.918" r="1.213"></circle><circle cx="60.047" cy="54.897" r="1.213"></circle><circle cx="60.047" cy="67.024" r="1.213"></circle><circle cx="58.026" cy="69.045" r="1.213"></circle><circle cx="58.026" cy="65.003" r="1.213"></circle><circle cx="60.047" cy="62.982" r="1.213"></circle><circle cx="60.047" cy="75.109" r="1.213"></circle><circle cx="58.026" cy="77.131" r="1.213"></circle><circle cx="58.026" cy="73.088" r="1.213"></circle><circle cx="60.047" cy="71.067" r="1.213"></circle><circle cx="58.026" cy="81.173" r="1.213"></circle><circle cx="60.047" cy="79.152" r="1.213"></circle><circle cx="56.005" cy="58.939" r="1.213"></circle><circle cx="53.983" cy="60.96" r="1.213"></circle><circle cx="53.983" cy="56.918" r="1.213"></circle><circle cx="56.005" cy="54.897" r="1.213"></circle><circle cx="56.005" cy="67.024" r="1.213"></circle><circle cx="53.983" cy="69.045" r="1.213"></circle><circle cx="53.983" cy="65.003" r="1.213"></circle><circle cx="56.005" cy="62.982" r="1.213"></circle><circle cx="56.005" cy="75.109" r="1.213"></circle><circle cx="53.983" cy="77.131" r="1.213"></circle><circle cx="53.983" cy="73.088" r="1.213"></circle><circle cx="56.005" cy="71.067" r="1.213"></circle><circle cx="56.005" cy="83.194" r="1.213"></circle><circle cx="53.983" cy="81.173" r="1.213"></circle><circle cx="56.005" cy="79.152" r="1.213"></circle><path d="M65.774 45.538a2.397 2.397 0 0 0-.012-.119c-.001-.008-.001-.017-.003-.025a1.721 1.721 0 0 0-.023-.142 2.138 2.138 0 0 0-.027-.115l-.006-.024-.032-.105-.01-.031c-.011-.033-.024-.065-.037-.097l-.014-.036c-.012-.029-.026-.058-.039-.086l-.02-.043-.041-.077-.026-.048c-.013-.023-.028-.045-.042-.068a2.458 2.458 0 0 0-.033-.053c-.013-.02-.028-.039-.042-.059l-.041-.057a1.831 1.831 0 0 0-.041-.051l-.049-.06-.039-.042-.059-.063-.037-.035a3.992 3.992 0 0 0-.068-.064l-.035-.029-.077-.063-.032-.023a2.684 2.684 0 0 0-.115-.08 1.57 1.57 0 0 0-.087-.054l-.01-.005-.003-.002-13.569-7.759a2.189 2.189 0 0 0-2.173 0l-13.569 7.755a.04.04 0 0 1-.009.005l-.003.002-.033.02-.088.055-.038.027c-.027.019-.054.037-.08.057l-.039.032c-.024.02-.049.039-.072.06l-.039.037-.065.061-.039.041c-.02.021-.04.041-.058.063l-.037.045-.053.065-.034.048c-.016.022-.033.045-.048.068a.838.838 0 0 0-.031.05l-.044.07-.028.051c-.013.024-.027.049-.039.074-.009.017-.016.035-.024.053a1.801 1.801 0 0 0-.035.077l-.021.055c-.01.026-.021.052-.029.078l-.017.055-.025.081-.013.056a2.555 2.555 0 0 0-.02.084l-.01.06-.014.082-.007.072c-.002.024-.006.048-.007.072-.003.037-.003.074-.004.11l-.001.035v37.318a2.19 2.19 0 0 0 1.102 1.9L48.93 92.66a2.185 2.185 0 0 0 2.186-.006c.028-.016.055-.034.083-.052l13.475-7.709a2.188 2.188 0 0 0 1.102-1.9v-37.31a1.172 1.172 0 0 0-.002-.145zm-13.528 4.106h-4.451l-1.06-.606h6.572l-1.061.606zm3.537-2.021H44.26l-1.06-.606h13.644l-1.061.606zm-6.646-6.67h1.767l1.06.606h-3.888l1.061-.606zM45.6 42.974H54.438l1.06.606H44.539l1.061-.606zm-3.537 2.021h15.864v-.026l1.106.633h-18.03l1.06-.607zm-3.421 4.46l9.19 5.256v32.274l-9.19-5.258V49.455zM61.4 53.887v2.02a1.21 1.21 0 0 0 0 2.022v2.02a1.21 1.21 0 0 0 0 2.022v2.02a1.21 1.21 0 0 0 0 2.022v2.02a1.21 1.21 0 0 0 0 2.022v2.02a1.21 1.21 0 0 0 0 2.022v2.02a1.21 1.21 0 0 0 0 2.022v2.02a1.21 1.21 0 0 0-.303 1.735l-.439.251a1.212 1.212 0 0 0-1.823 1.044l-3.642 2.084c.001-.02.003-.039.003-.059a1.213 1.213 0 1 0-1.776 1.074l-.458.262a1.216 1.216 0 0 0-.751-.502V84.38a1.213 1.213 0 0 0 0-2.374v-1.668a1.214 1.214 0 0 0 0-2.374v-1.668a1.214 1.214 0 0 0 0-2.374v-1.668a1.214 1.214 0 0 0 0-2.374v-1.668a1.214 1.214 0 0 0 0-2.374V64.17a1.214 1.214 0 0 0 0-2.374v-1.668a1.214 1.214 0 0 0 0-2.374v-1.668a1.214 1.214 0 0 0 .783-1.822l.492-.281a1.213 1.213 0 0 0 1.702-.973l3.649-2.086a1.211 1.211 0 0 0 2.422-.068c0-.42-.214-.791-.539-1.008l.679-.388v2.407a1.21 1.21 0 0 0 .001 2.02zM100 25.791a2.19 2.19 0 0 0-1.103-1.901l-13.569-7.759a2.189 2.189 0 0 0-2.173 0l-13.569 7.755a2.19 2.19 0 0 0-1.103 1.901v57.212c0 .785.421 1.511 1.102 1.901l13.569 7.763a2.186 2.186 0 0 0 2.186-.007l.06-.037 13.48-7.545a2.189 2.189 0 0 0 1.12-1.911V25.977l-.003-.093.003-.093zm-13.531 3.96h-4.453l-1.06-.606h6.574l-1.061.606zm3.537-2.021H78.482l-1.06-.606h13.646l-1.062.606zm-6.648-6.671h1.767l1.06.606h-3.888l1.061-.606zm-3.537 2.022H88.659l1.06.606H78.76l1.061-.606zm-3.537 2.021h15.864v-.026l1.106.633h-18.03l1.06-.607zm-3.421 4.518l9.189 5.371v51.994l-9.189-5.258V29.62zm22.758 52.259l-.527.295c.315-.216.523-.578.527-.989v.694zm0-49.228a1.213 1.213 0 1 0 0 .024v1.108a1.208 1.208 0 0 0 0 1.802v1.108a1.213 1.213 0 1 0 0 .024v1.108a1.209 1.209 0 0 0 0 1.804v1.108a1.213 1.213 0 1 0 0 .024v1.108a1.208 1.208 0 0 0 0 1.802v1.108a1.213 1.213 0 1 0 0 .024v1.108a1.208 1.208 0 0 0 0 1.803v1.108a1.213 1.213 0 1 0 0 .024v1.108a1.208 1.208 0 0 0 0 1.803v1.108a1.213 1.213 0 1 0 0 .024v1.108a1.208 1.208 0 0 0 0 1.802v1.108a1.213 1.213 0 1 0 0 .024v1.108a1.209 1.209 0 0 0 0 1.803v1.108a1.213 1.213 0 1 0 0 .024v1.108a1.208 1.208 0 0 0 0 1.802v1.108a1.213 1.213 0 1 0 0 .024v1.108a1.209 1.209 0 0 0 0 1.803v1.108a1.213 1.213 0 1 0 0 .024v1.108a1.208 1.208 0 0 0 0 1.802v1.108a1.213 1.213 0 1 0 0 .024v1.108a1.208 1.208 0 0 0 0 1.803v1.108a1.213 1.213 0 1 0 0 .024v1.108a1.208 1.208 0 0 0 0 1.803v1.108a1.213 1.213 0 1 0-.713 1.117l-1.322.74a1.212 1.212 0 1 0-1.977 1.107l-.398.223a1.213 1.213 0 0 0-2.028 1.135l-.988.553c-.323.04-.606.206-.799.447l-.966.54v-.599a1.213 1.213 0 0 0 0-2.414v-1.628a1.213 1.213 0 0 0 0-2.414v-1.628a1.213 1.213 0 0 0 0-2.414V74.3a1.213 1.213 0 0 0 0-2.414v-1.628a1.213 1.213 0 0 0 0-2.414V66.21a1.213 1.213 0 0 0 0-2.414v-1.628a1.213 1.213 0 0 0 0-2.414v-1.628a1.213 1.213 0 0 0 0-2.414v-1.628a1.213 1.213 0 0 0 0-2.414v-1.63a1.213 1.213 0 0 0 0-2.414v-1.628a1.213 1.213 0 0 0 0-2.414v-1.628a1.213 1.213 0 0 0 0-2.414v-1.628a1.213 1.213 0 0 0 0-2.414v-.497l.705-.403c-.002.029-.004.057-.004.086a1.213 1.213 0 1 0 1.753-1.085l.47-.268a1.212 1.212 0 0 0 2.101-1.2l.577-.33a1.212 1.212 0 0 0 1.534-.877l2.025-1.157a1.21 1.21 0 0 0 .029 1.776v1.106z"></path><circle cx="92.387" cy="34.684" r="1.213"></circle><circle cx="90.366" cy="36.705" r="1.213"></circle><circle cx="92.387" cy="42.769" r="1.213"></circle><circle cx="90.366" cy="44.79" r="1.213"></circle><circle cx="90.366" cy="40.748" r="1.213"></circle><circle cx="92.387" cy="38.727" r="1.213"></circle><circle cx="92.387" cy="50.854" r="1.213"></circle><circle cx="90.366" cy="52.875" r="1.213"></circle><circle cx="90.366" cy="48.833" r="1.213"></circle><circle cx="92.387" cy="46.812" r="1.213"></circle><circle cx="92.387" cy="58.939" r="1.213"></circle><circle cx="90.366" cy="60.96" r="1.213"></circle><circle cx="90.366" cy="56.918" r="1.213"></circle><circle cx="92.387" cy="54.897" r="1.213"></circle><circle cx="92.387" cy="67.024" r="1.213"></circle><circle cx="90.366" cy="69.045" r="1.213"></circle><circle cx="90.366" cy="65.003" r="1.213"></circle><circle cx="92.387" cy="62.982" r="1.213"></circle><circle cx="92.387" cy="75.109" r="1.213"></circle><circle cx="90.366" cy="77.131" r="1.213"></circle><circle cx="90.366" cy="73.088" r="1.213"></circle><circle cx="92.387" cy="71.067" r="1.213"></circle><circle cx="90.366" cy="81.173" r="1.213"></circle><circle cx="92.387" cy="79.152" r="1.213"></circle><circle cx="88.345" cy="42.769" r="1.213"></circle><circle cx="88.345" cy="38.727" r="1.213"></circle><circle cx="88.345" cy="50.854" r="1.213"></circle><circle cx="88.345" cy="46.812" r="1.213"></circle><circle cx="88.345" cy="58.939" r="1.213"></circle><circle cx="88.345" cy="54.897" r="1.213"></circle><circle cx="88.345" cy="67.024" r="1.213"></circle><circle cx="88.345" cy="62.982" r="1.213"></circle><circle cx="88.345" cy="75.109" r="1.213"></circle><circle cx="88.345" cy="71.067" r="1.213"></circle><circle cx="88.345" cy="83.194" r="1.213"></circle><circle cx="88.345" cy="79.152" r="1.213"></circle></g><!----></svg>
