<svg id="f2052fa5-2799-484c-83d5-7d8b9b1765a8" data-name="圖層 1" xmlns="http://www.w3.org/2000/svg" xmlns:xlink="http://www.w3.org/1999/xlink" viewBox="0 0 135.13043 125.47826"><defs><style>.f63c6591-3db4-4e2a-9569-c3f9c1efd44d{fill:url(#b2331299-58aa-4227-aa6c-bd019195c03b);}.f3835f4e-fb9b-47cf-bc6d-34b9f113c987{fill:url(#ffeb4e53-8582-4c95-a516-5b330803486a);}.b2df3aa1-e694-46ba-b7df-c6410f53427a{fill:url(#eeefa93c-b776-4510-aec1-65bab75bc9f8);}.e12e3f60-3769-47b5-87fa-9fd784e05ce0{fill:url(#b50c8286-7bbb-4215-8215-f56f5ffbdeb0);}.b4ffcd17-5232-4be8-a77b-109a69d9cc34{fill:url(#ed6b21b1-a4e8-43a5-b547-4b94118a1123);}.b4e7b6da-7c0c-49ff-a0bb-5273773f0d9e{fill:url(#ad2c0d55-f056-4995-a8e3-abe23f39a35c);}.b4b92b87-48c7-40b3-b88e-48d0979a0159{fill:url(#e7c8bca7-8e8e-4088-a84f-3df4f25a18df);}.abec4547-fd26-4fb3-bad3-0a08debdbf54{fill:url(#ab7c4d7b-ac45-4713-83ae-a2d71a404358);}.bdd1371d-c3e9-4f55-8e4e-74434c38fd49{fill:url(#eba2d7da-cad0-4299-b965-6c9c21a71542);}.b352cc62-cb6c-4956-92eb-fb8896c586a0{fill:url(#a990b967-6dee-4069-a972-9ed5d3586a8c);}.b6b10070-9f77-44e2-a4fd-e828b3abaf86{fill:url(#a742cbfe-bdc1-460b-bb5f-78ba33bf6c31);}.a9f60974-bfea-4827-89b3-100b7090e399{fill:url(#b9a2f3fd-8276-452b-b289-2c6a2b19bb2f);}.b27fa736-95f3-4ef2-bb3a-528e60fe70a4{fill:url(#b14ca347-d6b0-4044-86bf-fcfe078c6374);}.eb8026f5-55ab-46c2-b67f-1576c275aa4d{fill:url(#e62ebb36-c986-48a4-9a36-69050d59677c);}.bc624f71-eaef-44a5-a47f-7d598fc3f9c3{fill:url(#a58c0fd8-23d1-4e4a-b7a8-f8bc3f6b5f75);}.b5874ca9-3cf7-4a30-8d83-7eb01f173058{fill:url(#b6060987-6fa3-451c-87d3-83daa4dc73d8);}.f347c22e-b2cb-4b31-9244-783ddfadfdea{fill:url(#f722f06d-d776-4f7f-ae3c-b4f0e74266ed);}.f301242b-1600-4e53-8731-0ef9af40a42f{fill:url(#bd47416e-92f2-4cde-bd80-381278f4c976);}.ec204201-c65e-4165-9a2d-e35b2c17db7b{fill:url(#f912fa62-ad1c-4f61-a3f3-b6fefd033094);}.f1030246-e84f-4a5c-bb57-067a59f3719a{fill:url(#e17283fa-ebb4-438e-b595-5027ba09746c);}.a5372be1-2752-46c8-8272-33aac723f584{fill:url(#f1f18501-06cd-484c-8634-ce931bd1eb62);}.a3384c23-506b-45ef-92ff-d2d4d8f5254b{fill:url(#a63041c2-b896-4c14-ad13-00f2b75e6a74);}.af23e5fe-d8b7-40ba-85f6-24684e349598{fill:url(#b92adfea-107a-404d-96cc-81db446200eb);}.a4451dda-3f69-42d1-802b-6be851ab4108{fill:url(#f2e9e873-def4-45fc-b94b-586ff7a841bd);}.b9e9685b-76c1-4658-8245-6d63a3e4f0ae{fill:url(#b1c481c4-be60-438e-a24d-9d5a795939ee);}.b8eb6ee1-3e14-4b1c-b7ad-52a974cce3f9{fill:url(#ea4f86a9-5ea3-40da-bf88-29c0a7237418);}.eab2a0bb-7b90-49d3-84cc-b92076d367fe{fill:url(#e9cd064a-45de-4ba3-b1a5-4c2b12ec3433);}.f50eced8-876b-409b-bace-b8082696a3d8{fill:url(#b12de4b8-95ed-42f1-a858-e5f0c73952fc);}.aabbfdd8-c6c2-47cf-8c15-c0fb20c9e280{fill:url(#e49666a0-5eba-4a42-b503-c5c77f4f66f7);}.e09afc4c-63ee-4293-9a84-0e3cb3edcc7d{fill:url(#e7f98c52-23d6-48e8-8b8c-4554c1944586);}.fcc452ff-a870-464b-8835-8161f1ddb6c6{fill:url(#b6090d41-085b-46f0-98df-3ca57478a265);}.fc1d6ed7-cdd3-4eb8-91e2-4a6504c6d5dc{fill:url(#a7db67c5-caed-4252-a9c7-a83235d02fc5);}.a845d9f8-43ae-40d7-b50f-8eb14cf6bac0{fill:url(#b6be7a1e-3698-439f-b5cb-5ffc4992ea47);}.a8e93357-7a43-4699-8a0c-94b34086d214{fill:url(#a43e5efb-ba3e-4ab5-9ed1-11d7b1f46755);}.fc56255e-6694-4bd9-b306-56f0dd3e388b{fill:url(#a6ca19ba-be6a-4cf4-a73d-693cc6b3e9db);}.bcf23b01-e53f-40e2-bb6f-5fe46f2a998b{fill:url(#abfa7223-c34d-4243-be2b-ee19fb3c4a28);}.a690e659-f8c2-4ed3-98d1-82b3e9b89518{fill:url(#e886f403-25da-40d0-9945-86e95c2029a3);}.a980cbde-8af7-4ed4-9cae-5b47a7ce6bf5{fill:url(#a2219679-c37b-4890-9413-663f1639cb1b);}.af2d8fa1-e28a-4097-9b21-021c3258b015{fill:url(#a0c52a4b-9d88-42d9-810a-a63a3fb913d7);}.ab3418f5-b244-4486-b4a2-b267dde2046e{fill:url(#b53b5485-69f1-40d3-83be-742c4ae0806c);}.b7f008cb-2c9e-4d40-8200-01316b602820{fill:url(#af9fa119-537f-42a3-8298-b2bed3cb8bd2);}.e0bdfe7c-1a1b-487f-ae23-2bb7e9bb959a{fill:url(#ef614215-623c-4a4c-a5c7-7cc76167f84c);}.a214fcb1-8d81-40b6-8e0d-dc8e90d19b01{fill:url(#b23124b3-3ec9-4991-890a-ecdb7b53efbf);}.b81e00f5-67e2-4b8f-a535-4f9d854bdce3{fill:url(#f02254bf-dfca-4bc7-864b-4f3d942398d6);}.a964139f-4977-4738-a466-e80204cb7913{fill:url(#ba68e5a9-1eb3-4e7b-8619-1cfb847d71ce);}.bd4984d0-60e0-45e3-a280-4308b4bb8e32{fill:url(#bc7fc91d-c046-4eeb-9d66-d883d3af89da);}.aa99e2fa-7a1e-441d-81bf-4fde408830f4{fill:url(#afe1142b-e0df-432a-99a4-bd0d2422a85b);}.eae2619e-ae1d-4153-ae5a-e93973b0bd8f{fill:url(#fa297ef2-c713-479a-a861-8f8f6634ff51);}.a98dfb3c-e6a8-49da-ba42-7342ec419bfa{fill:url(#a66e1eea-ee8b-4a25-bd09-27f2379449e1);}.bae7b670-c1e3-43aa-bde0-1efd91b5604d{fill:url(#e420a797-e961-4886-9bd7-3f5f29c44c33);}.ac8f8b62-7e13-44df-982c-98230edf642a{fill:url(#b25b700b-361a-498a-bea1-226d6f80235f);}.b74f8486-3946-4fc9-bc26-c83403dd7245{fill:url(#aa050249-a9dc-469a-b7a6-e811853d5378);}.bf1ae230-396c-4581-9d62-e74be672f95a{fill:url(#a064927a-d37b-49d9-b809-d1d2efaaa55c);}.a0fa0d35-feb8-4df0-aa9f-c82deeaf9365{fill:url(#b3a84600-b14b-4d4b-af9e-437271981804);}.f947ffe4-946b-4ff7-bb50-b815922d2dbc{fill:url(#ba5381f0-2676-4616-8b6a-61c21396c033);}.ac2a64aa-13e5-4412-992e-f49363943104{fill:url(#e5db3f06-adba-4efc-91b8-b70ccb693cc6);}.e24ad569-7d33-4b85-98a4-ea7698d1ab23{fill:url(#a40ae64a-cf6d-4105-9963-bfc1669a961e);}.b6e32154-17ae-4141-93d6-9d6a8df67d93{fill:url(#b66a7477-8ea6-4cbd-a973-72f1f398af2e);}.f28dfc79-8b0f-4ec9-ab1a-71ca1bf81c37{fill:url(#ea50f8eb-2668-4612-938c-79cb2288ed6d);}.ad0dd3e0-62a1-4068-b456-4e9b15636314{fill:url(#ac8c37ea-29c6-4e34-b74f-8d6053d24a46);}.b22d5940-2da9-451c-8597-f4b60ba66c28{fill:url(#b810eb1e-02e4-48b9-a4ca-dc9d852c1c1e);}.f71b4cc8-9f21-4cae-b682-e147326ee6ad{fill:url(#bf8dcde4-01ff-462c-bee9-e8c49ac11200);}.fb9cb8e4-c595-4148-ae37-d495c4230269{fill:url(#b07cd9ec-a7b3-4856-a709-e57ce56d7e4b);}.bc9a4a84-3681-41ec-9ce8-97c530321a35{fill:url(#a37de6a9-97e9-49fc-8222-3fdf5b176da9);}.b6027fc6-40e9-4001-bae9-4e49642e3e1f{fill:url(#af8bb0ea-a0c3-42fd-ada4-0a2a813ed2c4);}.b85376c3-e0f2-4c80-bc31-8a19257a1d47{fill:url(#b4058f06-0c8c-4dcd-81b2-f756932c9563);}.e9b37677-2fc4-4e4a-932a-c6ae86621aad{fill:url(#bcf558ff-0984-4cf1-ac57-7306f9ab9d14);}.ec874009-fbd8-48ce-8d63-bf9c43f5378b{fill:url(#b0dbc2f0-23bc-4eee-8556-bfb4a2f728ab);}.e507b0d2-1450-41ef-b658-6d66b9de1041{fill:url(#b873f033-893e-4ef6-a5e1-1ba891b433ea);}.ae9d46e8-3bbe-41cc-b4fd-a9d753138412{fill:url(#aab88fd9-a730-4cad-aa33-fd2ed7a39cc8);}.aa692d35-589f-44d7-8c32-0f9f7c4d0464{fill:url(#a47f34e6-b77a-47ca-bd72-d0a0ac51b27e);}.a180c898-c03c-4443-a578-5e5cddf1ab51{fill:url(#a9868bd7-7fb2-445a-94ce-4ad6355e2a8a);}.bdac8651-ce56-4294-a40c-15c1ab7cd8a1{fill:url(#fa236ff5-7b56-444a-8415-8870122b17f0);}.a2389a43-8646-4a5a-9883-15e84d42545a{fill:url(#b3934946-8319-4b4e-8070-96a3c11e07a4);}.a6f816cc-f814-41c7-ad4d-5fb0a02b8747{fill:url(#eed68eab-fd02-49d4-be15-03597e079736);}.e89028b0-b9a5-4e9e-a995-c4a9e79ad83f{fill:url(#adfa1935-91fd-4a49-95ab-33f2fbe4827d);}</style><linearGradient id="b2331299-58aa-4227-aa6c-bd019195c03b" x1="-365.50939" y1="543.82438" x2="-364.50915" y2="543.82438" gradientTransform="matrix(2.56622, 1.19665, 1.19665, -2.56622, 324.97127, 1922.36479)" gradientUnits="userSpaceOnUse"><stop offset="0" stop-color="#21690f"/><stop offset="1" stop-color="#88c848"/></linearGradient><linearGradient id="ffeb4e53-8582-4c95-a516-5b330803486a" x1="-365.50939" y1="543.82438" x2="-364.50915" y2="543.82438" gradientTransform="matrix(2.56622, 1.19665, 1.19665, -2.56622, 324.97127, 1927.08241)" xlink:href="#b2331299-58aa-4227-aa6c-bd019195c03b"/><linearGradient id="eeefa93c-b776-4510-aec1-65bab75bc9f8" x1="-365.50939" y1="543.82438" x2="-364.50915" y2="543.82438" gradientTransform="matrix(2.56622, 1.19665, 1.19665, -2.56622, 322.61245, 1920.00481)" xlink:href="#b2331299-58aa-4227-aa6c-bd019195c03b"/><linearGradient id="b50c8286-7bbb-4215-8215-f56f5ffbdeb0" x1="-365.50939" y1="543.82438" x2="-364.50915" y2="543.82438" gradientTransform="matrix(2.56622, 1.19665, 1.19665, -2.56622, 320.25247, 1922.36479)" xlink:href="#b2331299-58aa-4227-aa6c-bd019195c03b"/><linearGradient id="ed6b21b1-a4e8-43a5-b547-4b94118a1123" x1="-365.50939" y1="543.82438" x2="-364.50915" y2="543.82438" gradientTransform="matrix(2.56622, 1.19665, 1.19665, -2.56622, 317.89366, 1929.44123)" xlink:href="#b2331299-58aa-4227-aa6c-bd019195c03b"/><linearGradient id="ad2c0d55-f056-4995-a8e3-abe23f39a35c" x1="-365.50939" y1="543.82438" x2="-364.50915" y2="543.82438" gradientTransform="matrix(2.56622, 1.19665, 1.19665, -2.56622, 320.25247, 1927.08241)" xlink:href="#b2331299-58aa-4227-aa6c-bd019195c03b"/><linearGradient id="e7c8bca7-8e8e-4088-a84f-3df4f25a18df" x1="-365.50939" y1="543.82438" x2="-364.50915" y2="543.82438" gradientTransform="matrix(2.56622, 1.19665, 1.19665, -2.56622, 317.89366, 1924.72361)" xlink:href="#b2331299-58aa-4227-aa6c-bd019195c03b"/><linearGradient id="ab7c4d7b-ac45-4713-83ae-a2d71a404358" x1="-365.50939" y1="543.82438" x2="-364.50915" y2="543.82438" gradientTransform="matrix(2.56622, 1.19665, 1.19665, -2.56622, 322.61128, 1924.72361)" xlink:href="#b2331299-58aa-4227-aa6c-bd019195c03b"/><linearGradient id="eba2d7da-cad0-4299-b965-6c9c21a71542" x1="-628.89767" y1="600.34736" x2="-627.89767" y2="600.34736" gradientTransform="matrix(33.33863, 17.50668, 15.54606, -37.54321, 11639.32788, 33625.20265)" xlink:href="#b2331299-58aa-4227-aa6c-bd019195c03b"/><linearGradient id="a990b967-6dee-4069-a972-9ed5d3586a8c" x1="-365.50939" y1="543.82438" x2="-364.50915" y2="543.82438" gradientTransform="matrix(2.56622, 1.19665, 1.19665, -2.56622, 362.71694, 1894.05437)" xlink:href="#b2331299-58aa-4227-aa6c-bd019195c03b"/><linearGradient id="a742cbfe-bdc1-460b-bb5f-78ba33bf6c31" x1="-365.50939" y1="543.82438" x2="-364.50915" y2="543.82438" gradientTransform="matrix(2.56622, 1.19665, 1.19665, -2.56622, 365.07575, 1901.13197)" xlink:href="#b2331299-58aa-4227-aa6c-bd019195c03b"/><linearGradient id="b9a2f3fd-8276-452b-b289-2c6a2b19bb2f" x1="-365.50939" y1="543.82438" x2="-364.50915" y2="543.82438" gradientTransform="matrix(2.56622, 1.19665, 1.19665, -2.56622, 362.71694, 1903.49078)" xlink:href="#b2331299-58aa-4227-aa6c-bd019195c03b"/><linearGradient id="b14ca347-d6b0-4044-86bf-fcfe078c6374" x1="-365.50939" y1="543.82438" x2="-364.50915" y2="543.82438" gradientTransform="matrix(2.56622, 1.19665, 1.19665, -2.56622, 362.71694, 1898.77316)" xlink:href="#b2331299-58aa-4227-aa6c-bd019195c03b"/><linearGradient id="e62ebb36-c986-48a4-9a36-69050d59677c" x1="-365.50939" y1="543.82438" x2="-364.50915" y2="543.82438" gradientTransform="matrix(2.56622, 1.19665, 1.19665, -2.56622, 365.07575, 1896.41434)" xlink:href="#b2331299-58aa-4227-aa6c-bd019195c03b"/><linearGradient id="a58c0fd8-23d1-4e4a-b7a8-f8bc3f6b5f75" x1="-365.50939" y1="543.82438" x2="-364.50915" y2="543.82438" gradientTransform="matrix(2.56622, 1.19665, 1.19665, -2.56622, 365.07575, 1910.5684)" xlink:href="#b2331299-58aa-4227-aa6c-bd019195c03b"/><linearGradient id="b6060987-6fa3-451c-87d3-83daa4dc73d8" x1="-365.50939" y1="543.82438" x2="-364.50915" y2="543.82438" gradientTransform="matrix(2.56622, 1.19665, 1.19665, -2.56622, 362.71694, 1912.9272)" xlink:href="#b2331299-58aa-4227-aa6c-bd019195c03b"/><linearGradient id="f722f06d-d776-4f7f-ae3c-b4f0e74266ed" x1="-365.50939" y1="543.82438" x2="-364.50915" y2="543.82438" gradientTransform="matrix(2.56622, 1.19665, 1.19665, -2.56622, 362.71694, 1908.20957)" xlink:href="#b2331299-58aa-4227-aa6c-bd019195c03b"/><linearGradient id="bd47416e-92f2-4cde-bd80-381278f4c976" x1="-365.50939" y1="543.82438" x2="-364.50915" y2="543.82438" gradientTransform="matrix(2.56622, 1.19665, 1.19665, -2.56622, 365.07575, 1905.85076)" xlink:href="#b2331299-58aa-4227-aa6c-bd019195c03b"/><linearGradient id="f912fa62-ad1c-4f61-a3f3-b6fefd033094" x1="-365.50939" y1="543.82438" x2="-364.50915" y2="543.82438" gradientTransform="matrix(2.56622, 1.19665, 1.19665, -2.56622, 365.07575, 1920.00481)" xlink:href="#b2331299-58aa-4227-aa6c-bd019195c03b"/><linearGradient id="e17283fa-ebb4-438e-b595-5027ba09746c" x1="-365.50939" y1="543.82438" x2="-364.50915" y2="543.82438" gradientTransform="matrix(2.56622, 1.19665, 1.19665, -2.56622, 362.71694, 1922.36479)" xlink:href="#b2331299-58aa-4227-aa6c-bd019195c03b"/><linearGradient id="f1f18501-06cd-484c-8634-ce931bd1eb62" x1="-365.50939" y1="543.82438" x2="-364.50915" y2="543.82438" gradientTransform="matrix(2.56622, 1.19665, 1.19665, -2.56622, 362.71694, 1917.646)" xlink:href="#b2331299-58aa-4227-aa6c-bd019195c03b"/><linearGradient id="a63041c2-b896-4c14-ad13-00f2b75e6a74" x1="-365.50939" y1="543.82438" x2="-364.50915" y2="543.82438" gradientTransform="matrix(2.56622, 1.19665, 1.19665, -2.56622, 365.07575, 1915.28719)" xlink:href="#b2331299-58aa-4227-aa6c-bd019195c03b"/><linearGradient id="b92adfea-107a-404d-96cc-81db446200eb" x1="-365.50939" y1="543.82438" x2="-364.50915" y2="543.82438" gradientTransform="matrix(2.56622, 1.19665, 1.19665, -2.56622, 362.71694, 1927.08241)" xlink:href="#b2331299-58aa-4227-aa6c-bd019195c03b"/><linearGradient id="f2e9e873-def4-45fc-b94b-586ff7a841bd" x1="-365.50939" y1="543.82438" x2="-364.50915" y2="543.82438" gradientTransform="matrix(2.56622, 1.19665, 1.19665, -2.56622, 365.07575, 1924.72361)" xlink:href="#b2331299-58aa-4227-aa6c-bd019195c03b"/><linearGradient id="b1c481c4-be60-438e-a24d-9d5a795939ee" x1="-365.50939" y1="543.82438" x2="-364.50915" y2="543.82438" gradientTransform="matrix(2.56622, 1.19665, 1.19665, -2.56622, 360.35813, 1901.13197)" xlink:href="#b2331299-58aa-4227-aa6c-bd019195c03b"/><linearGradient id="ea4f86a9-5ea3-40da-bf88-29c0a7237418" x1="-365.50939" y1="543.82438" x2="-364.50915" y2="543.82438" gradientTransform="matrix(2.56622, 1.19665, 1.19665, -2.56622, 357.99815, 1903.49078)" xlink:href="#b2331299-58aa-4227-aa6c-bd019195c03b"/><linearGradient id="e9cd064a-45de-4ba3-b1a5-4c2b12ec3433" x1="-365.50939" y1="543.82438" x2="-364.50915" y2="543.82438" gradientTransform="matrix(2.56622, 1.19665, 1.19665, -2.56622, 357.99815, 1898.77316)" xlink:href="#b2331299-58aa-4227-aa6c-bd019195c03b"/><linearGradient id="b12de4b8-95ed-42f1-a858-e5f0c73952fc" x1="-365.50939" y1="543.82438" x2="-364.50915" y2="543.82438" gradientTransform="matrix(2.56622, 1.19665, 1.19665, -2.56622, 360.35813, 1896.41434)" xlink:href="#b2331299-58aa-4227-aa6c-bd019195c03b"/><linearGradient id="e49666a0-5eba-4a42-b503-c5c77f4f66f7" x1="-365.50939" y1="543.82438" x2="-364.50915" y2="543.82438" gradientTransform="matrix(2.56622, 1.19665, 1.19665, -2.56622, 360.35813, 1910.5684)" xlink:href="#b2331299-58aa-4227-aa6c-bd019195c03b"/><linearGradient id="e7f98c52-23d6-48e8-8b8c-4554c1944586" x1="-365.50939" y1="543.82438" x2="-364.50915" y2="543.82438" gradientTransform="matrix(2.56622, 1.19665, 1.19665, -2.56622, 357.99815, 1912.9272)" xlink:href="#b2331299-58aa-4227-aa6c-bd019195c03b"/><linearGradient id="b6090d41-085b-46f0-98df-3ca57478a265" x1="-365.50939" y1="543.82438" x2="-364.50915" y2="543.82438" gradientTransform="matrix(2.56622, 1.19665, 1.19665, -2.56622, 357.99815, 1908.20957)" xlink:href="#b2331299-58aa-4227-aa6c-bd019195c03b"/><linearGradient id="a7db67c5-caed-4252-a9c7-a83235d02fc5" x1="-365.50939" y1="543.82438" x2="-364.50915" y2="543.82438" gradientTransform="matrix(2.56622, 1.19665, 1.19665, -2.56622, 360.35813, 1905.85076)" xlink:href="#b2331299-58aa-4227-aa6c-bd019195c03b"/><linearGradient id="b6be7a1e-3698-439f-b5cb-5ffc4992ea47" x1="-365.50939" y1="543.82438" x2="-364.50915" y2="543.82438" gradientTransform="matrix(2.56622, 1.19665, 1.19665, -2.56622, 360.35813, 1920.00481)" xlink:href="#b2331299-58aa-4227-aa6c-bd019195c03b"/><linearGradient id="a43e5efb-ba3e-4ab5-9ed1-11d7b1f46755" x1="-365.50939" y1="543.82438" x2="-364.50915" y2="543.82438" gradientTransform="matrix(2.56622, 1.19665, 1.19665, -2.56622, 357.99815, 1922.36479)" xlink:href="#b2331299-58aa-4227-aa6c-bd019195c03b"/><linearGradient id="a6ca19ba-be6a-4cf4-a73d-693cc6b3e9db" x1="-365.50939" y1="543.82438" x2="-364.50915" y2="543.82438" gradientTransform="matrix(2.56622, 1.19665, 1.19665, -2.56622, 357.99815, 1917.646)" xlink:href="#b2331299-58aa-4227-aa6c-bd019195c03b"/><linearGradient id="abfa7223-c34d-4243-be2b-ee19fb3c4a28" x1="-365.50939" y1="543.82438" x2="-364.50915" y2="543.82438" gradientTransform="matrix(2.56622, 1.19665, 1.19665, -2.56622, 360.35813, 1915.28719)" xlink:href="#b2331299-58aa-4227-aa6c-bd019195c03b"/><linearGradient id="e886f403-25da-40d0-9945-86e95c2029a3" x1="-365.50939" y1="543.82438" x2="-364.50915" y2="543.82438" gradientTransform="matrix(2.56622, 1.19665, 1.19665, -2.56622, 360.35813, 1929.44123)" xlink:href="#b2331299-58aa-4227-aa6c-bd019195c03b"/><linearGradient id="a2219679-c37b-4890-9413-663f1639cb1b" x1="-365.50939" y1="543.82438" x2="-364.50915" y2="543.82438" gradientTransform="matrix(2.56622, 1.19665, 1.19665, -2.56622, 357.99815, 1927.08241)" xlink:href="#b2331299-58aa-4227-aa6c-bd019195c03b"/><linearGradient id="a0c52a4b-9d88-42d9-810a-a63a3fb913d7" x1="-365.50939" y1="543.82438" x2="-364.50915" y2="543.82438" gradientTransform="matrix(2.56622, 1.19665, 1.19665, -2.56622, 360.35813, 1924.72361)" xlink:href="#b2331299-58aa-4227-aa6c-bd019195c03b"/><linearGradient id="b53b5485-69f1-40d3-83be-742c4ae0806c" x1="-640.07028" y1="602.23928" x2="-639.07028" y2="602.23928" gradientTransform="matrix(69.54074, 38.03527, 32.42738, -81.5669, 25023.5463, 73506.42811)" xlink:href="#b2331299-58aa-4227-aa6c-bd019195c03b"/><linearGradient id="af9fa119-537f-42a3-8298-b2bed3cb8bd2" x1="-365.50939" y1="543.82438" x2="-364.50915" y2="543.82438" gradientTransform="matrix(2.56622, 1.19665, 1.19665, -2.56622, 402.82143, 1872.82271)" xlink:href="#b2331299-58aa-4227-aa6c-bd019195c03b"/><linearGradient id="ef614215-623c-4a4c-a5c7-7cc76167f84c" x1="-365.50939" y1="543.82438" x2="-364.50915" y2="543.82438" gradientTransform="matrix(2.56622, 1.19665, 1.19665, -2.56622, 400.46261, 1875.18153)" xlink:href="#b2331299-58aa-4227-aa6c-bd019195c03b"/><linearGradient id="b23124b3-3ec9-4991-890a-ecdb7b53efbf" x1="-365.50939" y1="543.82438" x2="-364.50915" y2="543.82438" gradientTransform="matrix(2.56622, 1.19665, 1.19665, -2.56622, 402.82143, 1882.25913)" xlink:href="#b2331299-58aa-4227-aa6c-bd019195c03b"/><linearGradient id="f02254bf-dfca-4bc7-864b-4f3d942398d6" x1="-365.50939" y1="543.82438" x2="-364.50915" y2="543.82438" gradientTransform="matrix(2.56622, 1.19665, 1.19665, -2.56622, 400.46261, 1884.61795)" xlink:href="#b2331299-58aa-4227-aa6c-bd019195c03b"/><linearGradient id="ba68e5a9-1eb3-4e7b-8619-1cfb847d71ce" x1="-365.50939" y1="543.82438" x2="-364.50915" y2="543.82438" gradientTransform="matrix(2.56622, 1.19665, 1.19665, -2.56622, 400.46261, 1879.90032)" xlink:href="#b2331299-58aa-4227-aa6c-bd019195c03b"/><linearGradient id="bc7fc91d-c046-4eeb-9d66-d883d3af89da" x1="-365.50939" y1="543.82438" x2="-364.50915" y2="543.82438" gradientTransform="matrix(2.56622, 1.19665, 1.19665, -2.56622, 402.82143, 1877.54151)" xlink:href="#b2331299-58aa-4227-aa6c-bd019195c03b"/><linearGradient id="afe1142b-e0df-432a-99a4-bd0d2422a85b" x1="-365.50939" y1="543.82438" x2="-364.50915" y2="543.82438" gradientTransform="matrix(2.56622, 1.19665, 1.19665, -2.56622, 402.82143, 1891.69555)" xlink:href="#b2331299-58aa-4227-aa6c-bd019195c03b"/><linearGradient id="fa297ef2-c713-479a-a861-8f8f6634ff51" x1="-365.50939" y1="543.82438" x2="-364.50915" y2="543.82438" gradientTransform="matrix(2.56622, 1.19665, 1.19665, -2.56622, 400.46261, 1894.05437)" xlink:href="#b2331299-58aa-4227-aa6c-bd019195c03b"/><linearGradient id="a66e1eea-ee8b-4a25-bd09-27f2379449e1" x1="-365.50939" y1="543.82438" x2="-364.50915" y2="543.82438" gradientTransform="matrix(2.56622, 1.19665, 1.19665, -2.56622, 400.46261, 1889.33674)" xlink:href="#b2331299-58aa-4227-aa6c-bd019195c03b"/><linearGradient id="e420a797-e961-4886-9bd7-3f5f29c44c33" x1="-365.50939" y1="543.82438" x2="-364.50915" y2="543.82438" gradientTransform="matrix(2.56622, 1.19665, 1.19665, -2.56622, 402.82143, 1886.97793)" xlink:href="#b2331299-58aa-4227-aa6c-bd019195c03b"/><linearGradient id="b25b700b-361a-498a-bea1-226d6f80235f" x1="-365.50939" y1="543.82438" x2="-364.50915" y2="543.82438" gradientTransform="matrix(2.56622, 1.19665, 1.19665, -2.56622, 402.82143, 1901.13197)" xlink:href="#b2331299-58aa-4227-aa6c-bd019195c03b"/><linearGradient id="aa050249-a9dc-469a-b7a6-e811853d5378" x1="-365.50939" y1="543.82438" x2="-364.50915" y2="543.82438" gradientTransform="matrix(2.56622, 1.19665, 1.19665, -2.56622, 400.46261, 1903.49078)" xlink:href="#b2331299-58aa-4227-aa6c-bd019195c03b"/><linearGradient id="a064927a-d37b-49d9-b809-d1d2efaaa55c" x1="-365.50939" y1="543.82438" x2="-364.50915" y2="543.82438" gradientTransform="matrix(2.56622, 1.19665, 1.19665, -2.56622, 400.46261, 1898.77316)" xlink:href="#b2331299-58aa-4227-aa6c-bd019195c03b"/><linearGradient id="b3a84600-b14b-4d4b-af9e-437271981804" x1="-365.50939" y1="543.82438" x2="-364.50915" y2="543.82438" gradientTransform="matrix(2.56622, 1.19665, 1.19665, -2.56622, 402.82143, 1896.41434)" xlink:href="#b2331299-58aa-4227-aa6c-bd019195c03b"/><linearGradient id="ba5381f0-2676-4616-8b6a-61c21396c033" x1="-365.50939" y1="543.82438" x2="-364.50915" y2="543.82438" gradientTransform="matrix(2.56622, 1.19665, 1.19665, -2.56622, 402.82143, 1910.5684)" xlink:href="#b2331299-58aa-4227-aa6c-bd019195c03b"/><linearGradient id="e5db3f06-adba-4efc-91b8-b70ccb693cc6" x1="-365.50939" y1="543.82438" x2="-364.50915" y2="543.82438" gradientTransform="matrix(2.56622, 1.19665, 1.19665, -2.56622, 400.46261, 1912.9272)" xlink:href="#b2331299-58aa-4227-aa6c-bd019195c03b"/><linearGradient id="a40ae64a-cf6d-4105-9963-bfc1669a961e" x1="-365.50939" y1="543.82438" x2="-364.50915" y2="543.82438" gradientTransform="matrix(2.56622, 1.19665, 1.19665, -2.56622, 400.46261, 1908.20957)" xlink:href="#b2331299-58aa-4227-aa6c-bd019195c03b"/><linearGradient id="b66a7477-8ea6-4cbd-a973-72f1f398af2e" x1="-365.50939" y1="543.82438" x2="-364.50915" y2="543.82438" gradientTransform="matrix(2.56622, 1.19665, 1.19665, -2.56622, 402.82143, 1905.85076)" xlink:href="#b2331299-58aa-4227-aa6c-bd019195c03b"/><linearGradient id="ea50f8eb-2668-4612-938c-79cb2288ed6d" x1="-365.50939" y1="543.82438" x2="-364.50915" y2="543.82438" gradientTransform="matrix(2.56622, 1.19665, 1.19665, -2.56622, 402.82143, 1920.00481)" xlink:href="#b2331299-58aa-4227-aa6c-bd019195c03b"/><linearGradient id="ac8c37ea-29c6-4e34-b74f-8d6053d24a46" x1="-365.50939" y1="543.82438" x2="-364.50915" y2="543.82438" gradientTransform="matrix(2.56622, 1.19665, 1.19665, -2.56622, 400.46261, 1922.36479)" xlink:href="#b2331299-58aa-4227-aa6c-bd019195c03b"/><linearGradient id="b810eb1e-02e4-48b9-a4ca-dc9d852c1c1e" x1="-365.50939" y1="543.82438" x2="-364.50915" y2="543.82438" gradientTransform="matrix(2.56622, 1.19665, 1.19665, -2.56622, 400.46261, 1917.646)" xlink:href="#b2331299-58aa-4227-aa6c-bd019195c03b"/><linearGradient id="bf8dcde4-01ff-462c-bee9-e8c49ac11200" x1="-365.50939" y1="543.82438" x2="-364.50915" y2="543.82438" gradientTransform="matrix(2.56622, 1.19665, 1.19665, -2.56622, 402.82143, 1915.28719)" xlink:href="#b2331299-58aa-4227-aa6c-bd019195c03b"/><linearGradient id="b07cd9ec-a7b3-4856-a709-e57ce56d7e4b" x1="-365.50939" y1="543.82438" x2="-364.50915" y2="543.82438" gradientTransform="matrix(2.56622, 1.19665, 1.19665, -2.56622, 400.46261, 1927.08241)" xlink:href="#b2331299-58aa-4227-aa6c-bd019195c03b"/><linearGradient id="a37de6a9-97e9-49fc-8222-3fdf5b176da9" x1="-365.50939" y1="543.82438" x2="-364.50915" y2="543.82438" gradientTransform="matrix(2.56622, 1.19665, 1.19665, -2.56622, 402.82143, 1924.72361)" xlink:href="#b2331299-58aa-4227-aa6c-bd019195c03b"/><linearGradient id="af8bb0ea-a0c3-42fd-ada4-0a2a813ed2c4" x1="-365.50939" y1="543.82438" x2="-364.50915" y2="543.82438" gradientTransform="matrix(2.56622, 1.19665, 1.19665, -2.56622, 398.1038, 1882.25913)" xlink:href="#b2331299-58aa-4227-aa6c-bd019195c03b"/><linearGradient id="b4058f06-0c8c-4dcd-81b2-f756932c9563" x1="-365.50939" y1="543.82438" x2="-364.50915" y2="543.82438" gradientTransform="matrix(2.56622, 1.19665, 1.19665, -2.56622, 398.1038, 1877.54151)" xlink:href="#b2331299-58aa-4227-aa6c-bd019195c03b"/><linearGradient id="bcf558ff-0984-4cf1-ac57-7306f9ab9d14" x1="-365.50939" y1="543.82438" x2="-364.50915" y2="543.82438" gradientTransform="matrix(2.56622, 1.19665, 1.19665, -2.56622, 398.1038, 1891.69555)" xlink:href="#b2331299-58aa-4227-aa6c-bd019195c03b"/><linearGradient id="b0dbc2f0-23bc-4eee-8556-bfb4a2f728ab" x1="-365.50939" y1="543.82438" x2="-364.50915" y2="543.82438" gradientTransform="matrix(2.56622, 1.19665, 1.19665, -2.56622, 398.1038, 1886.97793)" xlink:href="#b2331299-58aa-4227-aa6c-bd019195c03b"/><linearGradient id="b873f033-893e-4ef6-a5e1-1ba891b433ea" x1="-365.50939" y1="543.82438" x2="-364.50915" y2="543.82438" gradientTransform="matrix(2.56622, 1.19665, 1.19665, -2.56622, 398.1038, 1901.13197)" xlink:href="#b2331299-58aa-4227-aa6c-bd019195c03b"/><linearGradient id="aab88fd9-a730-4cad-aa33-fd2ed7a39cc8" x1="-365.50939" y1="543.82438" x2="-364.50915" y2="543.82438" gradientTransform="matrix(2.56622, 1.19665, 1.19665, -2.56622, 398.1038, 1896.41434)" xlink:href="#b2331299-58aa-4227-aa6c-bd019195c03b"/><linearGradient id="a47f34e6-b77a-47ca-bd72-d0a0ac51b27e" x1="-365.50939" y1="543.82438" x2="-364.50915" y2="543.82438" gradientTransform="matrix(2.56622, 1.19665, 1.19665, -2.56622, 398.1038, 1910.5684)" xlink:href="#b2331299-58aa-4227-aa6c-bd019195c03b"/><linearGradient id="a9868bd7-7fb2-445a-94ce-4ad6355e2a8a" x1="-365.50939" y1="543.82438" x2="-364.50915" y2="543.82438" gradientTransform="matrix(2.56622, 1.19665, 1.19665, -2.56622, 398.1038, 1905.85076)" xlink:href="#b2331299-58aa-4227-aa6c-bd019195c03b"/><linearGradient id="fa236ff5-7b56-444a-8415-8870122b17f0" x1="-365.50939" y1="543.82438" x2="-364.50915" y2="543.82438" gradientTransform="matrix(2.56622, 1.19665, 1.19665, -2.56622, 398.1038, 1920.00481)" xlink:href="#b2331299-58aa-4227-aa6c-bd019195c03b"/><linearGradient id="b3934946-8319-4b4e-8070-96a3c11e07a4" x1="-365.50939" y1="543.82438" x2="-364.50915" y2="543.82438" gradientTransform="matrix(2.56622, 1.19665, 1.19665, -2.56622, 398.1038, 1915.28719)" xlink:href="#b2331299-58aa-4227-aa6c-bd019195c03b"/><linearGradient id="eed68eab-fd02-49d4-be15-03597e079736" x1="-365.50939" y1="543.82438" x2="-364.50915" y2="543.82438" gradientTransform="matrix(2.56622, 1.19665, 1.19665, -2.56622, 398.1038, 1929.44123)" xlink:href="#b2331299-58aa-4227-aa6c-bd019195c03b"/><linearGradient id="adfa1935-91fd-4a49-95ab-33f2fbe4827d" x1="-365.50939" y1="543.82438" x2="-364.50915" y2="543.82438" gradientTransform="matrix(2.56622, 1.19665, 1.19665, -2.56622, 398.1038, 1924.72361)" xlink:href="#b2331299-58aa-4227-aa6c-bd019195c03b"/></defs><g id="ed546fea-9545-4890-8955-b8849c06f6b0" data-name="d86bb6ef-4253-488e-9741-d22c4d04c21f"><circle class="f63c6591-3db4-4e2a-9569-c3f9c1efd44d" cx="39.46546" cy="90.20157" r="1.41575"/><circle class="f3835f4e-fb9b-47cf-bc6d-34b9f113c987" cx="39.46546" cy="94.91919" r="1.41575"/><circle class="b2df3aa1-e694-46ba-b7df-c6410f53427a" cx="37.10665" cy="87.84159" r="1.41575"/><circle class="e12e3f60-3769-47b5-87fa-9fd784e05ce0" cx="34.74667" cy="90.20157" r="1.41575"/><circle class="b4ffcd17-5232-4be8-a77b-109a69d9cc34" cx="32.38785" cy="97.27801" r="1.41575"/><circle class="b4e7b6da-7c0c-49ff-a0bb-5273773f0d9e" cx="34.74667" cy="94.91919" r="1.41575"/><circle class="b4b92b87-48c7-40b3-b88e-48d0979a0159" cx="32.38785" cy="92.56038" r="1.41575"/><circle class="abec4547-fd26-4fb3-bad3-0a08debdbf54" cx="37.10548" cy="92.56038" r="1.41575"/><path class="bdd1371d-c3e9-4f55-8e4e-74434c38fd49" d="M46.31314,78.68529c-.00234-.04319-.00817-.0852-.01284-.12839l-.00467-.04086q-.00866-.06216-.021-.12372l-.007-.042c-.00817-.04085-.01868-.08053-.028-.12021-.00351-.014-.00584-.02918-.01051-.04319-.00934-.03618-.021-.07119-.03268-.10738l-.01634-.05252q-.01761-.04883-.03735-.09687l-.02217-.05836-.03969-.0887-.028-.063c-.01284-.02685-.028-.05252-.042-.07937-.01167-.02217-.02334-.04552-.03618-.06652l-.04318-.07-.04435-.07119-.04319-.0607c-.01751-.02451-.035-.05018-.05369-.07353l-.04435-.05485-.06069-.07471-.04552-.049-.06886-.07353-.04435-.042-.077-.07236-.04551-.03735-.08521-.07L45.272,76.791l-.09221-.06536-.04669-.02918-.0887-.056-.00934-.00467-.00466-.0035L29.19569,67.581a2.55492,2.55492,0,0,0-2.53622,0L10.8224,76.63226l-.00817.00584-.00584.0035-.05135.03151-.08871.05485-.05368.03735c-.028.01984-.0572.03968-.084.06069l-.05019.04086-.07936.06536-.04786.04435c-.02451.02334-.05018.04669-.07353.07119l-.04435.04669-.06886.0747-.04085.05019q-.03356.03787-.06419.0782l-.03735.05252q-.03018.04073-.05836.08287l-.03385.05368q-.02746.04278-.05369.08637l-.03034.056c-.01634.03035-.03268.05953-.04786.091q-.03713.07461-.06886.15173l-.02334.06069q-.01886.047-.03618.09454l-.01868.06186c-.0105.03268-.021.0642-.02918.09688l-.01517.063-.02334.09921-.01167.07-.01634.0957q-.005.04251-.00817.0852l-.00817.08287q-.00321.06474-.00467.12955l-.00117.04086V97.0504a2.55829,2.55829,0,0,0,1.2862,2.21876l15.83708,9.0606a2.55141,2.55141,0,0,0,2.55256-.007c.03268-.01868.06419-.03968.0957-.05953l15.72737-8.99757a2.5549,2.5549,0,0,0,1.2862-2.21875V78.8557Q46.31842,78.77043,46.31314,78.68529Zm-22.2214,4.085h7.67052l-1.23835.70729h-5.195ZM34.65213,81.1188H21.20421L19.967,80.4115H35.89164Zm-7.75689-7.7849H28.9576l1.23718.70729H25.65689ZM22.767,75.69271H33.08231L34.32066,76.4H21.52984ZM18.64,78.05152H37.15567v-.03035l1.29087.73881H17.40163ZM14.646,83.257l10.725,6.13454v12.31111L14.646,95.56578Zm26.562,3.31237a1.41225,1.41225,0,0,0,0,2.54439V91.287a1.41226,1.41226,0,0,0,0,2.54439v1.72972l-2.69845,1.543a1.41459,1.41459,0,1,0-2.26427,1.29554l-.4692.26845a1.41575,1.41575,0,0,0-2.38916,1.36673l-.95706.54856-.04319-.00233a1.41478,1.41478,0,0,0-1.243.73881l-.66178.37815v-.72129a1.41459,1.41459,0,0,0,0-2.67978v-2.039a1.41459,1.41459,0,0,0,0-2.67978v-2.039a1.41458,1.41458,0,0,0,.46336-2.416l.461-.26377a1.41576,1.41576,0,0,0,2.35648-1.34689l1.08779-.62209a1.4137,1.4137,0,0,0,1.0586-.60575L38.1279,85.0171a1.4157,1.4157,0,1,0,1.6165-.92439l.768-.43885a1.419,1.419,0,0,0,.69445.74v2.17557Z"/><circle class="b352cc62-cb6c-4956-92eb-fb8896c586a0" cx="77.21113" cy="61.89115" r="1.41576"/><circle class="b6b10070-9f77-44e2-a4fd-e828b3abaf86" cx="79.56995" cy="68.96875" r="1.41576"/><circle class="a9f60974-bfea-4827-89b3-100b7090e399" cx="77.21113" cy="71.32756" r="1.41576"/><circle class="b27fa736-95f3-4ef2-bb3a-528e60fe70a4" cx="77.21113" cy="66.60994" r="1.41576"/><circle class="eb8026f5-55ab-46c2-b67f-1576c275aa4d" cx="79.56995" cy="64.25113" r="1.41576"/><circle class="bc624f71-eaef-44a5-a47f-7d598fc3f9c3" cx="79.56995" cy="78.40517" r="1.41575"/><circle class="b5874ca9-3cf7-4a30-8d83-7eb01f173058" cx="77.21113" cy="80.76398" r="1.41575"/><circle class="f347c22e-b2cb-4b31-9244-783ddfadfdea" cx="77.21113" cy="76.04635" r="1.41575"/><circle class="f301242b-1600-4e53-8731-0ef9af40a42f" cx="79.56995" cy="73.68754" r="1.41576"/><circle class="ec204201-c65e-4165-9a2d-e35b2c17db7b" cx="79.56995" cy="87.84159" r="1.41575"/><circle class="f1030246-e84f-4a5c-bb57-067a59f3719a" cx="77.21113" cy="90.20157" r="1.41575"/><circle class="a5372be1-2752-46c8-8272-33aac723f584" cx="77.21113" cy="85.48277" r="1.41575"/><circle class="a3384c23-506b-45ef-92ff-d2d4d8f5254b" cx="79.56995" cy="83.12396" r="1.41575"/><circle class="af23e5fe-d8b7-40ba-85f6-24684e349598" cx="77.21113" cy="94.91919" r="1.41575"/><circle class="a4451dda-3f69-42d1-802b-6be851ab4108" cx="79.56995" cy="92.56038" r="1.41575"/><circle class="b9e9685b-76c1-4658-8245-6d63a3e4f0ae" cx="74.85232" cy="68.96875" r="1.41576"/><circle class="b8eb6ee1-3e14-4b1c-b7ad-52a974cce3f9" cx="72.49234" cy="71.32756" r="1.41576"/><circle class="eab2a0bb-7b90-49d3-84cc-b92076d367fe" cx="72.49234" cy="66.60994" r="1.41576"/><circle class="f50eced8-876b-409b-bace-b8082696a3d8" cx="74.85232" cy="64.25113" r="1.41576"/><circle class="aabbfdd8-c6c2-47cf-8c15-c0fb20c9e280" cx="74.85232" cy="78.40517" r="1.41575"/><circle class="e09afc4c-63ee-4293-9a84-0e3cb3edcc7d" cx="72.49234" cy="80.76398" r="1.41575"/><circle class="fcc452ff-a870-464b-8835-8161f1ddb6c6" cx="72.49234" cy="76.04635" r="1.41575"/><circle class="fc1d6ed7-cdd3-4eb8-91e2-4a6504c6d5dc" cx="74.85232" cy="73.68754" r="1.41576"/><circle class="a845d9f8-43ae-40d7-b50f-8eb14cf6bac0" cx="74.85232" cy="87.84159" r="1.41575"/><circle class="a8e93357-7a43-4699-8a0c-94b34086d214" cx="72.49234" cy="90.20157" r="1.41575"/><circle class="fc56255e-6694-4bd9-b306-56f0dd3e388b" cx="72.49234" cy="85.48277" r="1.41575"/><circle class="bcf23b01-e53f-40e2-bb6f-5fe46f2a998b" cx="74.85232" cy="83.12396" r="1.41575"/><circle class="a690e659-f8c2-4ed3-98d1-82b3e9b89518" cx="74.85232" cy="97.27801" r="1.41575"/><circle class="a980cbde-8af7-4ed4-9cae-5b47a7ce6bf5" cx="72.49234" cy="94.91919" r="1.41575"/><circle class="af2d8fa1-e28a-4097-9b21-021c3258b015" cx="74.85232" cy="92.56038" r="1.41575"/><path class="ab3418f5-b244-4486-b4a2-b267dde2046e" d="M86.25422,53.32775q-.00527-.0696-.014-.13889a.25045.25045,0,0,0-.0035-.02918q-.01-.08338-.02685-.16573-.0139-.06753-.03151-.13422l-.007-.028-.03735-.12255-.01167-.03618c-.01284-.03852-.028-.07587-.04319-.11322l-.01634-.042c-.014-.03385-.03035-.0677-.04552-.10038L85.994,52.3672l-.04785-.08987-.03035-.056c-.01517-.02684-.03268-.05252-.049-.07937q-.01886-.03117-.03851-.06186c-.01518-.02334-.03268-.04552-.049-.06886l-.04786-.06652q-.02339-.03019-.04785-.05953l-.0572-.07-.04552-.049-.06886-.07353-.04318-.04085q-.03925-.03782-.07937-.07469l-.04086-.03385-.08987-.07353-.03735-.02684q-.06586-.04843-.13422-.09338-.04972-.03315-.10154-.063l-.01167-.00584-.0035-.00233L69.13327,42.22232a2.55487,2.55487,0,0,0-2.53622,0L50.76,51.27358l-.01051.00584-.0035.00233-.03851.02334-.10271.0642-.04435.03151c-.03152.02218-.063.04318-.09338.06653l-.04552.03735c-.028.02334-.05719.04552-.084.07l-.04552.04318-.07587.0712-.04552.04785c-.02334.02451-.04668.04786-.06769.07353l-.04318.05252-.06186.07587-.03969.056c-.01867.02568-.03851.05252-.056.07937q-.01911.02853-.03618.05835l-.05135.0817-.03268.05953c-.01518.028-.03152.05719-.04552.08637-.01051.01984-.01868.04085-.028.06186q-.02148.04444-.04085.08987l-.02451.06419c-.01167.03035-.02451.06069-.03385.091l-.01984.06419-.02918.09454-.01517.06536q-.01251.04883-.02335.098l-.01167.07-.01634.09571-.00817.084c-.00233.028-.007.056-.00817.084-.0035.04318-.0035.08637-.00467.12838l-.00116.04086V97.04809a2.556,2.556,0,0,0,1.2862,2.21759l15.83708,9.06059a2.55022,2.55022,0,0,0,2.55139-.007c.03268-.01868.06419-.03968.09687-.0607L84.97036,99.261a2.5537,2.5537,0,0,0,1.2862-2.21759V53.497A1.36749,1.36749,0,0,0,86.25422,53.32775ZM70.465,58.12008H65.27l-1.23718-.7073h7.67052Zm4.12821-2.35882H61.14413L59.90694,55.054H75.83156Zm-7.75688-7.7849h2.06235l1.23718.7073H65.598Zm-4.12822,2.35882H73.02339l1.23719.70729H61.46976ZM58.5799,52.694H77.09559v-.03034l1.29087.7388H57.34271Zm-3.99283,5.2055L65.31319,64.034v37.66865L54.58707,95.56579Zm26.562,5.17281V65.43a1.41225,1.41225,0,0,0,0,2.36v2.35765a1.41225,1.41225,0,0,0,0,2.36V74.8652a1.41225,1.41225,0,0,0,0,2.36v2.35764a1.41227,1.41227,0,0,0,0,2.36v2.35764a1.41226,1.41226,0,0,0,0,2.36v2.35764a1.41227,1.41227,0,0,0,0,2.36V93.7357a1.41226,1.41226,0,0,0-.40187,1.95638q.02308.035.04823.06863l-.51238.29295a1.41459,1.41459,0,0,0-2.12772,1.21851l-4.25077,2.43234c.00117-.02334.0035-.04552.0035-.06886a1.41575,1.41575,0,1,0-2.07286,1.25352l-.53455.30579a1.41928,1.41928,0,0,0-.87653-.58591v-1.9468a1.41576,1.41576,0,0,0,0-2.77082V93.94462a1.41693,1.41693,0,0,0,0-2.77082V89.227a1.41692,1.41692,0,0,0,0-2.77081V84.50937a1.41693,1.41693,0,0,0,0-2.77082V79.79174a1.41692,1.41692,0,0,0,0-2.77081V75.07412a1.41693,1.41693,0,0,0,0-2.77082V70.35649a1.41693,1.41693,0,0,0,0-2.77082v-1.9468a1.41693,1.41693,0,0,0,.91388-2.12655l.57424-.328a1.41575,1.41575,0,0,0,1.98649-1.13564L78.15769,59.614a1.414,1.414,0,0,0,2.82684-.07937h0a1.41292,1.41292,0,0,0-.62909-1.17649l.79249-.45285v2.80933a1.41225,1.41225,0,0,0,.00117,2.35764ZM126.20114,30.28a2.55609,2.55609,0,0,0-1.28736-2.21876L109.0767,19.00534a2.55485,2.55485,0,0,0-2.53621,0L90.70341,28.0566a2.55606,2.55606,0,0,0-1.28736,2.21875V97.05042a2.55828,2.55828,0,0,0,1.28619,2.21876l15.83708,9.06059a2.55136,2.55136,0,0,0,2.55139-.00817l.07-.04319,15.7332-8.80615a2.5549,2.5549,0,0,0,1.30721-2.23043V30.49711l-.0035-.10855Zm-15.79272,4.62192h-5.19733l-1.23718-.7073h7.67285Zm4.12822-2.35881H101.08638l-1.23717-.7073h15.927Zm-7.75923-7.78607h2.06236l1.23717.70729h-4.53788Zm-4.12821,2.36h10.31528l1.23717.70729h-12.7908ZM98.521,29.47585h18.51569v-.03034l1.29087.7388H97.2838ZM94.52816,34.749l10.725,6.26877v60.68487l-10.725-6.13689Zm26.562,60.99416-.61509.34431a1.41411,1.41411,0,0,0,.61509-1.15431Zm0-57.45653a1.41576,1.41576,0,1,0,0,.028v1.29321a1.40992,1.40992,0,0,0,0,2.10321v1.2932a1.41576,1.41576,0,1,0,0,.028v1.29321a1.41108,1.41108,0,0,0,0,2.10554v1.29321a1.41575,1.41575,0,1,0,0,.028v1.2932a1.40992,1.40992,0,0,0,0,2.10321V52.4419a1.41575,1.41575,0,1,0,0,.028v1.2932a1.41,1.41,0,0,0,0,2.10438v1.2932a1.41576,1.41576,0,1,0,0,.028v1.29321a1.40992,1.40992,0,0,0,0,2.10437v1.29321a1.41575,1.41575,0,1,0,0,.028v1.29321a1.40992,1.40992,0,0,0,0,2.1032v1.29321a1.41575,1.41575,0,1,0,0,.028v1.2932a1.41109,1.41109,0,0,0,0,2.10438v1.2932a1.41575,1.41575,0,1,0,0,.028v1.29321a1.40992,1.40992,0,0,0,0,2.10321v1.2932a1.41576,1.41576,0,1,0,0,.028v1.2932a1.41109,1.41109,0,0,0,0,2.10438v1.2932a1.41576,1.41576,0,1,0,0,.028v1.2932a1.40992,1.40992,0,0,0,0,2.10321V85.47a1.41575,1.41575,0,1,0,0,.028V86.7912a1.40992,1.40992,0,0,0,0,2.10437v1.29321a1.41575,1.41575,0,1,0,0,.028V91.51a1.40992,1.40992,0,0,0,0,2.10437v1.29321a1.41578,1.41578,0,1,0-.83218,1.3037l-1.543.86369a1.41459,1.41459,0,1,0-2.30745,1.292l-.46453.26028a1.41576,1.41576,0,0,0-2.367,1.32472l-1.15314.64543a1.41724,1.41724,0,0,0-.93256.52172l-1.12747.63026v-.69912a1.41576,1.41576,0,0,0,0-2.81751V96.33267a1.41575,1.41575,0,0,0,0-2.8175V91.61505a1.41576,1.41576,0,0,0,0-2.81751V86.89737a1.41576,1.41576,0,0,0,0-2.81751V82.17974a1.41575,1.41575,0,0,0,0-2.8175V77.45511a1.41576,1.41576,0,0,0,0-2.81751V72.73748a1.41575,1.41575,0,0,0,0-2.8175V68.01986a1.41576,1.41576,0,0,0,0-2.81751V63.30223a1.41575,1.41575,0,0,0,0-2.8175V58.58227a1.41576,1.41576,0,0,0,0-2.81751V53.86464a1.41575,1.41575,0,0,0,0-2.8175V49.147a1.41576,1.41576,0,0,0,0-2.81751V44.42939a1.41575,1.41575,0,0,0,0-2.8175v-.58008l.82284-.47036c-.00233.03385-.00466.06653-.00466.10037a1.41576,1.41576,0,1,0,2.046-1.26636l.54856-.31279a1.41459,1.41459,0,0,0,2.45219-1.40059l.67345-.38516a1.41458,1.41458,0,0,0,1.767-.93789q.013-.04246.02335-.0857l2.36349-1.35039a1.41224,1.41224,0,0,0-.04482,1.99672q.03784.03958.07866.07614v1.29087Z"/><circle class="b7f008cb-2c9e-4d40-8200-01316b602820" cx="117.31562" cy="40.65949" r="1.41575"/><circle class="e0bdfe7c-1a1b-487f-ae23-2bb7e9bb959a" cx="114.9568" cy="43.01831" r="1.41575"/><circle class="a214fcb1-8d81-40b6-8e0d-dc8e90d19b01" cx="117.31562" cy="50.09592" r="1.41575"/><circle class="b81e00f5-67e2-4b8f-a535-4f9d854bdce3" cx="114.9568" cy="52.45473" r="1.41575"/><circle class="a964139f-4977-4738-a466-e80204cb7913" cx="114.9568" cy="47.7371" r="1.41575"/><circle class="bd4984d0-60e0-45e3-a280-4308b4bb8e32" cx="117.31562" cy="45.37829" r="1.41575"/><circle class="aa99e2fa-7a1e-441d-81bf-4fde408830f4" cx="117.31562" cy="59.53233" r="1.41575"/><circle class="eae2619e-ae1d-4153-ae5a-e93973b0bd8f" cx="114.9568" cy="61.89115" r="1.41575"/><circle class="a98dfb3c-e6a8-49da-ba42-7342ec419bfa" cx="114.9568" cy="57.17352" r="1.41575"/><circle class="bae7b670-c1e3-43aa-bde0-1efd91b5604d" cx="117.31562" cy="54.81471" r="1.41575"/><circle class="ac8f8b62-7e13-44df-982c-98230edf642a" cx="117.31562" cy="68.96875" r="1.41575"/><circle class="b74f8486-3946-4fc9-bc26-c83403dd7245" cx="114.9568" cy="71.32756" r="1.41575"/><circle class="bf1ae230-396c-4581-9d62-e74be672f95a" cx="114.9568" cy="66.60994" r="1.41575"/><circle class="a0fa0d35-feb8-4df0-aa9f-c82deeaf9365" cx="117.31562" cy="64.25113" r="1.41575"/><circle class="f947ffe4-946b-4ff7-bb50-b815922d2dbc" cx="117.31562" cy="78.40517" r="1.41575"/><circle class="ac2a64aa-13e5-4412-992e-f49363943104" cx="114.9568" cy="80.76398" r="1.41575"/><circle class="e24ad569-7d33-4b85-98a4-ea7698d1ab23" cx="114.9568" cy="76.04635" r="1.41575"/><circle class="b6e32154-17ae-4141-93d6-9d6a8df67d93" cx="117.31562" cy="73.68754" r="1.41575"/><circle class="f28dfc79-8b0f-4ec9-ab1a-71ca1bf81c37" cx="117.31562" cy="87.84159" r="1.41575"/><circle class="ad0dd3e0-62a1-4068-b456-4e9b15636314" cx="114.9568" cy="90.20157" r="1.41575"/><circle class="b22d5940-2da9-451c-8597-f4b60ba66c28" cx="114.9568" cy="85.48277" r="1.41575"/><circle class="f71b4cc8-9f21-4cae-b682-e147326ee6ad" cx="117.31562" cy="83.12396" r="1.41575"/><circle class="fb9cb8e4-c595-4148-ae37-d495c4230269" cx="114.9568" cy="94.91919" r="1.41575"/><circle class="bc9a4a84-3681-41ec-9ce8-97c530321a35" cx="117.31562" cy="92.56038" r="1.41575"/><circle class="b6027fc6-40e9-4001-bae9-4e49642e3e1f" cx="112.598" cy="50.09592" r="1.41575"/><circle class="b85376c3-e0f2-4c80-bc31-8a19257a1d47" cx="112.598" cy="45.37829" r="1.41575"/><circle class="e9b37677-2fc4-4e4a-932a-c6ae86621aad" cx="112.598" cy="59.53233" r="1.41575"/><circle class="ec874009-fbd8-48ce-8d63-bf9c43f5378b" cx="112.598" cy="54.81471" r="1.41575"/><circle class="e507b0d2-1450-41ef-b658-6d66b9de1041" cx="112.598" cy="68.96875" r="1.41575"/><circle class="ae9d46e8-3bbe-41cc-b4fd-a9d753138412" cx="112.598" cy="64.25113" r="1.41575"/><circle class="aa692d35-589f-44d7-8c32-0f9f7c4d0464" cx="112.598" cy="78.40517" r="1.41575"/><circle class="a180c898-c03c-4443-a578-5e5cddf1ab51" cx="112.598" cy="73.68754" r="1.41575"/><circle class="bdac8651-ce56-4294-a40c-15c1ab7cd8a1" cx="112.598" cy="87.84159" r="1.41575"/><circle class="a2389a43-8646-4a5a-9883-15e84d42545a" cx="112.598" cy="83.12396" r="1.41575"/><circle class="a6f816cc-f814-41c7-ad4d-5fb0a02b8747" cx="112.598" cy="97.27801" r="1.41575"/><circle class="e89028b0-b9a5-4e9e-a995-c4a9e79ad83f" cx="112.598" cy="92.56038" r="1.41575"/></g></svg>