<?xml version="1.0" standalone="no"?>
<!DOCTYPE svg PUBLIC "-//W3C//DTD SVG 20010904//EN"
 "http://www.w3.org/TR/2001/REC-SVG-20010904/DTD/svg10.dtd">
<svg version="1.0" xmlns="http://www.w3.org/2000/svg"
 width="563.000000pt" height="563.000000pt" viewBox="0 0 563.000000 563.000000"
 preserveAspectRatio="xMidYMid meet">
<metadata>
Created by potrace 1.14, written by Peter Selinger 2001-2017
</metadata>
<g transform="translate(0.000000,563.000000) scale(0.100000,-0.100000)"
fill="#000000" stroke="none">
<path d="M4452 4645 c-16 -7 -91 -49 -168 -93 -76 -44 -155 -89 -174 -100 -19
-11 -102 -58 -185 -105 -82 -47 -161 -97 -175 -112 l-25 -27 0 -1421 c0 -1245
2 -1426 15 -1452 12 -24 85 -70 364 -230 399 -229 389 -225 491 -164 33 20
187 107 341 193 155 86 290 166 300 177 18 20 19 67 22 1450 2 1251 0 1433
-13 1458 -11 23 -93 74 -364 229 -191 109 -360 201 -374 204 -14 3 -38 -1 -55
-7z m103 -262 c17 -11 9 -13 -65 -13 -79 1 -83 2 -60 15 31 17 98 17 125 -2z
m159 -89 c43 -17 -4 -21 -231 -21 -213 -1 -243 1 -222 13 18 10 76 13 231 14
113 0 213 -3 222 -6z m189 -108 c15 -11 -50 -14 -410 -13 -363 0 -424 2 -408
13 27 20 791 20 818 0z m-118 -86 c29 -1 29 -1 8 -13 -16 -9 -97 -12 -295 -12
-253 1 -318 6 -318 23 0 5 413 7 605 2z m-155 -101 c0 -14 -36 -19 -139 -20
-102 0 -145 6 -137 20 5 8 276 8 276 0z m-425 -175 l180 -105 0 -1257 c0 -830
-3 -1257 -10 -1257 -6 0 -35 15 -65 32 -30 18 -125 73 -210 121 l-155 89 -3
1267 -2 1267 42 -26 c24 -14 124 -73 223 -131z m821 120 c-3 -8 1 -28 9 -44
21 -40 19 -44 -10 -22 -31 25 -75 16 -92 -18 -15 -30 -3 -62 31 -78 23 -12 31
-11 51 2 34 23 38 20 20 -14 -18 -35 -18 -39 0 -66 17 -27 8 -39 -13 -18 -17
18 -71 12 -84 -9 -13 -20 -9 -65 8 -81 20 -21 63 -20 86 1 18 16 19 16 7 -12
-14 -36 -13 -73 2 -91 14 -17 8 -18 -25 -3 -66 30 -117 -39 -69 -93 20 -22 56
-23 77 -3 23 24 28 18 11 -15 -8 -16 -15 -32 -15 -35 0 -3 7 -19 15 -35 18
-34 17 -35 -20 -16 -70 37 -125 -57 -59 -101 21 -13 26 -13 55 1 42 21 42 21
24 -14 -14 -27 -14 -34 -2 -60 18 -35 10 -46 -15 -23 -37 33 -104 -18 -91 -68
6 -23 51 -48 73 -41 8 2 23 12 33 20 16 15 17 14 11 -4 -4 -10 -10 -23 -14
-29 -10 -13 -3 -55 13 -74 10 -12 9 -14 -8 -6 -45 18 -72 17 -93 -5 -16 -18
-18 -28 -11 -53 5 -17 14 -34 21 -39 21 -13 55 -9 72 7 23 24 26 18 10 -20
-13 -31 -13 -39 1 -65 17 -32 11 -37 -18 -16 -20 15 -61 10 -78 -10 -16 -19
-14 -63 3 -80 21 -21 53 -25 75 -9 29 23 33 18 17 -20 -12 -29 -12 -40 -2 -58
20 -36 18 -51 -3 -28 -24 26 -50 27 -79 3 -63 -51 10 -134 76 -88 18 13 21 13
21 0 0 -8 -4 -14 -8 -14 -14 0 -16 -38 -4 -74 12 -35 12 -37 -4 -22 -37 34
-95 13 -103 -36 -9 -52 59 -90 95 -53 20 20 29 7 12 -19 -18 -26 -17 -28 2
-73 l15 -38 -21 19 c-36 33 -96 19 -101 -24 -5 -34 1 -50 25 -66 22 -14 27
-14 56 0 42 21 42 21 24 -14 -14 -28 -14 -34 -1 -60 16 -32 8 -38 -24 -18 -17
11 -25 10 -48 -2 -34 -20 -44 -77 -16 -97 24 -17 64 -16 84 2 15 13 17 13 17
0 0 -8 -4 -15 -8 -15 -15 0 -17 -45 -3 -72 13 -25 4 -42 -11 -18 -11 18 -63
11 -84 -11 -36 -39 -1 -103 51 -95 16 2 36 10 44 16 16 14 19 -1 3 -17 -17
-17 -18 -46 -2 -75 15 -31 8 -35 -20 -13 -38 28 -87 0 -87 -49 0 -37 15 -56
45 -56 20 -1 20 -1 0 -15 -17 -14 -21 -13 -43 10 -16 18 -30 24 -48 21 -44 -8
-57 -26 -51 -72 4 -41 4 -42 -19 -32 -34 16 -73 -4 -80 -40 -4 -21 -19 -35
-61 -57 -71 -38 -73 -39 -73 -27 0 5 11 14 25 20 20 9 25 19 25 46 0 25 -7 40
-25 54 -34 27 -34 76 1 98 20 14 24 24 22 53 -2 26 -9 39 -25 46 -34 15 -32
77 2 99 17 11 25 26 25 46 0 28 -22 60 -41 60 -5 0 -9 18 -9 40 0 22 4 40 9
40 19 0 41 32 41 60 0 20 -8 35 -25 46 -35 23 -35 75 1 98 21 14 25 24 22 54
-2 27 -9 40 -25 47 -34 15 -32 77 2 99 17 11 25 26 25 46 0 19 -9 35 -25 48
-18 15 -25 29 -25 56 0 20 4 36 9 36 19 0 41 32 41 60 0 19 -9 35 -25 48 -34
27 -34 74 1 96 21 14 25 24 22 54 -2 27 -9 40 -25 47 -33 14 -32 70 2 97 16
13 25 29 25 48 0 19 -9 35 -25 48 -18 15 -25 29 -25 56 0 20 4 36 9 36 19 0
41 32 41 60 0 20 -8 35 -25 46 -34 22 -36 84 -2 99 17 8 22 18 22 50 0 32 -5
42 -22 50 -33 14 -32 70 1 96 38 30 39 57 5 91 -38 39 -41 90 -4 106 37 17 35
73 -2 100 -21 16 -25 23 -16 32 13 14 33 5 33 -15 0 -20 52 -35 76 -22 10 6
22 15 26 21 11 16 10 64 -2 71 -23 15 -7 22 19 9 21 -10 36 -12 55 -5 25 10
44 50 32 70 -4 6 11 15 34 21 22 6 49 20 59 32 22 22 71 56 85 57 4 1 5 -6 2
-15z"/>
<path d="M4860 3787 c-46 -23 -36 -100 15 -109 48 -10 93 49 67 88 -6 10 -45
34 -54 34 -2 0 -14 -6 -28 -13z"/>
<path d="M4752 3684 c-27 -19 -29 -64 -4 -87 58 -53 137 28 82 83 -24 24 -48
25 -78 4z"/>
<path d="M4652 3584 c-26 -18 -28 -45 -6 -79 31 -48 104 -22 104 38 0 27 -32
57 -60 57 -9 0 -26 -7 -38 -16z"/>
<path d="M4847 3582 c-35 -39 -9 -102 41 -102 28 0 62 34 62 60 0 27 -35 60
-63 60 -13 0 -31 -8 -40 -18z"/>
<path d="M4747 3482 c-10 -10 -17 -28 -17 -40 0 -28 34 -62 60 -62 27 0 60 35
60 63 0 50 -70 76 -103 39z"/>
<path d="M4644 3375 c-21 -32 -12 -67 22 -85 53 -29 104 33 74 90 -16 30 -74
28 -96 -5z"/>
<path d="M4846 3385 c-25 -25 -20 -72 9 -91 32 -21 67 -12 85 22 12 22 12 29
-1 52 -18 33 -68 42 -93 17z"/>
<path d="M4750 3288 c-48 -44 -2 -120 59 -96 46 17 56 65 21 96 -28 23 -55 23
-80 0z"/>
<path d="M4663 3199 c-45 -17 -41 -94 5 -106 52 -14 82 8 82 58 0 42 -41 66
-87 48z"/>
<path d="M4851 3194 c-14 -10 -21 -26 -21 -49 0 -69 91 -79 114 -12 8 22 6 31
-12 50 -26 27 -52 31 -81 11z"/>
<path d="M4750 3090 c-11 -11 -20 -31 -20 -44 0 -30 44 -67 68 -59 54 19 70
79 30 107 -30 21 -54 20 -78 -4z"/>
<path d="M4650 2990 c-24 -24 -25 -48 -4 -78 19 -27 64 -29 87 -4 24 26 21 68
-5 86 -30 21 -54 20 -78 -4z"/>
<path d="M4847 2992 c-37 -40 -9 -102 46 -102 28 0 57 32 57 62 0 25 -36 58
-63 58 -13 0 -31 -8 -40 -18z"/>
<path d="M4747 2892 c-36 -39 -7 -102 45 -102 25 0 58 36 58 63 0 50 -70 76
-103 39z"/>
<path d="M4644 2785 c-35 -54 16 -110 74 -83 33 16 42 67 17 92 -25 25 -72 20
-91 -9z"/>
<path d="M4846 2794 c-25 -24 -20 -71 9 -90 55 -36 117 25 81 80 -19 30 -65
35 -90 10z"/>
<path d="M4767 2708 c-31 -11 -45 -48 -29 -82 19 -42 93 -39 107 4 17 54 -24
96 -78 78z"/>
<path d="M4670 2613 c-43 -17 -51 -63 -16 -98 22 -22 29 -23 53 -14 33 12 43
26 43 61 0 40 -41 66 -80 51z"/>
<path d="M4860 2607 c-62 -31 -19 -130 47 -106 49 18 54 86 8 107 -31 14 -25
14 -55 -1z"/>
<path d="M4752 2504 c-45 -31 -17 -104 40 -104 51 0 78 69 40 103 -23 21 -51
22 -80 1z"/>
<path d="M4646 2398 c-9 -12 -16 -29 -16 -38 0 -9 7 -26 16 -38 31 -45 104
-17 104 40 0 53 -74 79 -104 36z"/>
<path d="M4847 2402 c-35 -39 -9 -102 41 -102 28 0 62 34 62 60 0 27 -35 60
-63 60 -13 0 -31 -8 -40 -18z"/>
<path d="M4747 2302 c-37 -41 -7 -102 50 -102 25 0 53 34 53 66 0 47 -71 72
-103 36z"/>
<path d="M4644 2195 c-21 -32 -12 -67 22 -85 37 -20 78 3 82 47 6 61 -71 89
-104 38z"/>
<path d="M4846 2204 c-25 -24 -20 -71 9 -90 21 -14 30 -14 55 -4 38 16 48 51
26 85 -19 29 -66 34 -90 9z"/>
<path d="M4762 2117 c-43 -19 -41 -85 3 -105 31 -14 72 1 81 30 16 53 -34 97
-84 75z"/>
<path d="M4658 2016 c-27 -20 -33 -68 -11 -88 44 -40 103 -16 103 41 0 46 -56
74 -92 47z"/>
<path d="M4852 2014 c-46 -32 -12 -117 43 -106 37 7 58 36 50 70 -9 44 -57 62
-93 36z"/>
<path d="M4752 1914 c-27 -19 -29 -64 -4 -87 58 -53 137 28 82 83 -24 24 -48
25 -78 4z"/>
<path d="M4650 1810 c-11 -11 -20 -29 -20 -40 0 -27 35 -60 63 -60 50 0 76 70
39 103 -25 23 -58 21 -82 -3z"/>
<path d="M4847 1812 c-53 -58 28 -137 83 -82 27 27 26 65 -2 84 -30 21 -61 20
-81 -2z"/>
<path d="M4746 1714 c-34 -33 -4 -104 44 -104 27 0 60 35 60 63 0 49 -70 76
-104 41z"/>
<path d="M4680 1632 c-67 -21 -65 -100 2 -116 34 -8 68 22 68 60 0 38 -36 67
-70 56z"/>
<path d="M4846 1614 c-19 -19 -21 -68 -3 -81 23 -19 62 -22 82 -7 23 17 26 81
5 95 -23 14 -67 11 -84 -7z"/>
<path d="M4770 1533 c-42 -15 -53 -71 -19 -102 21 -19 28 -20 66 -7 44 14 42
84 -2 104 -14 7 -27 12 -28 11 -1 0 -9 -3 -17 -6z"/>
<path d="M4665 1428 c-28 -15 -27 -14 -31 -45 -4 -35 21 -63 57 -63 56 0 82
73 37 104 -26 19 -36 19 -63 4z"/>
<path d="M2800 3683 c-35 -12 -687 -388 -710 -410 l-25 -23 -3 -950 -2 -949
27 -30 c16 -17 179 -117 363 -222 277 -159 342 -193 375 -193 34 -1 90 28 389
199 210 120 355 209 365 224 14 23 16 116 16 960 0 772 -2 939 -14 962 -12 27
-125 97 -411 257 -25 13 -101 57 -170 97 -121 70 -169 88 -200 78z m90 -268
c23 -13 19 -14 -60 -14 -77 0 -83 1 -66 14 25 19 93 19 126 0z m155 -89 c63
-16 7 -21 -215 -21 -156 0 -239 3 -237 10 2 5 19 12 38 15 47 7 384 4 414 -4z
m191 -107 c11 -12 -48 -14 -406 -14 -231 0 -420 3 -420 7 0 7 11 10 63 21 4 1
174 1 378 1 302 -1 373 -4 385 -15z m-101 -91 c16 -15 -55 -20 -299 -21 -246
0 -342 7 -318 22 14 8 608 8 617 -1z m-178 -105 c-34 -17 -249 -15 -267 3 -8
8 32 11 142 12 142 0 151 -1 125 -15z m-609 -50 c37 -20 83 -46 102 -58 19
-12 42 -25 50 -28 8 -4 60 -34 115 -66 l100 -58 3 -782 c1 -429 1 -781 -1
-781 -2 0 -102 56 -223 125 l-219 125 0 780 c0 429 1 780 3 780 1 0 33 -17 70
-37z m1031 10 c0 -25 -1 -26 -9 -8 -12 27 -12 35 0 35 6 0 10 -12 9 -27z
m-119 -58 c0 -41 87 -45 107 -5 11 22 13 23 13 5 0 -12 -5 -26 -10 -31 -18
-18 -20 -56 -5 -78 8 -11 15 -27 15 -35 0 -11 -5 -8 -16 7 -17 25 -74 31 -92
10 -24 -31 -23 -57 2 -83 31 -31 50 -32 81 0 29 28 33 13 9 -34 -14 -29 -14
-34 0 -56 26 -39 20 -58 -9 -30 -29 30 -45 31 -75 7 -26 -21 -30 -66 -7 -89
23 -23 68 -19 89 7 18 22 18 22 18 1 0 -12 -4 -21 -9 -21 -18 0 -22 -52 -6
-76 8 -13 14 -34 14 -46 -2 -22 -2 -22 -6 -2 -10 52 -93 56 -111 6 -23 -66 51
-111 98 -60 23 25 27 8 6 -25 -17 -24 -16 -41 2 -74 17 -32 15 -51 -4 -25 -17
25 -75 31 -91 10 -36 -46 -4 -113 49 -104 16 2 31 6 32 8 2 2 8 12 14 23 11
20 11 20 12 0 0 -12 -5 -26 -11 -32 -17 -17 -19 -61 -3 -74 8 -6 14 -21 13
-33 l0 -21 -11 22 c-21 43 -98 32 -111 -16 -7 -29 14 -64 47 -72 22 -6 33 -3
52 16 28 28 31 13 8 -34 -14 -29 -14 -34 0 -56 9 -13 16 -32 16 -42 -1 -16 -2
-16 -12 2 -23 41 -66 47 -96 15 -36 -38 -9 -100 42 -100 26 0 39 9 54 35 18
32 15 -7 -3 -41 -19 -36 -19 -48 0 -64 8 -7 15 -22 15 -33 l0 -21 -15 21 c-31
44 -94 30 -110 -24 -4 -17 1 -30 19 -48 31 -31 50 -32 81 0 29 28 35 9 10 -29
-8 -13 -14 -34 -13 -47 3 -20 -1 -24 -21 -21 -29 3 -67 -20 -75 -45 -3 -10
-29 -31 -58 -47 -42 -23 -49 -25 -35 -9 23 26 22 58 -4 84 -35 35 -99 6 -99
-45 0 -32 14 -47 51 -55 l34 -7 -31 -17 c-30 -16 -31 -16 -42 8 -22 47 -95 41
-108 -9 -3 -13 0 -34 6 -46 14 -27 5 -39 -16 -19 -27 27 -27 65 1 95 32 35 33
78 1 99 -31 21 -30 78 2 101 29 20 29 67 0 94 -32 30 -30 76 4 111 31 30 29
48 -6 87 -19 22 -31 92 -15 92 16 0 39 33 39 55 0 13 -11 36 -24 50 -30 32
-28 80 3 102 28 19 27 66 -1 93 -31 28 -31 79 -1 103 29 24 31 70 3 90 -13 9
-22 28 -24 51 -3 29 1 40 20 55 31 24 33 74 4 94 -13 9 -22 28 -24 50 -3 29 1
39 20 52 18 11 24 25 24 50 0 32 3 35 28 35 31 0 72 25 72 43 0 7 24 25 52 41
37 20 48 23 38 11 -39 -47 16 -111 75 -89 44 17 36 98 -10 110 -24 6 -24 7 -8
20 23 18 33 17 33 -1z"/>
<path d="M3072 2790 c-18 -29 -15 -57 8 -80 37 -37 100 -8 100 45 0 50 -82 76
-108 35z"/>
<path d="M2999 2713 c-23 -6 -43 -47 -36 -76 12 -47 94 -56 111 -12 21 56 -18
101 -75 88z"/>
<path d="M3192 2713 c-7 -3 -19 -17 -26 -31 -34 -67 49 -120 96 -61 23 27 23
41 1 68 -18 22 -48 32 -71 24z"/>
<path d="M3082 2604 c-34 -23 -28 -84 10 -102 65 -31 118 49 66 98 -26 24 -46
25 -76 4z"/>
<path d="M3000 2513 c-63 -22 -45 -113 23 -113 53 0 76 61 37 100 -20 20 -33
23 -60 13z"/>
<path d="M3182 2504 c-29 -20 -31 -79 -3 -94 54 -28 109 9 95 64 -11 44 -53
58 -92 30z"/>
<path d="M3077 2402 c-37 -40 -9 -102 46 -102 28 0 57 32 57 62 0 25 -36 58
-63 58 -13 0 -31 -8 -40 -18z"/>
<path d="M2977 2302 c-10 -10 -17 -28 -17 -40 0 -27 33 -62 58 -62 31 0 62 29
62 59 0 54 -68 82 -103 43z"/>
<path d="M3176 2304 c-22 -21 -20 -67 2 -87 57 -52 131 29 81 89 -15 19 -64
18 -83 -2z"/>
<path d="M3097 2218 c-32 -11 -45 -48 -29 -83 22 -47 96 -39 108 11 12 48 -32
89 -79 72z"/>
<path d="M2995 2118 c-26 -15 -35 -28 -35 -54 0 -50 65 -79 101 -43 48 48 -7
130 -66 97z"/>
<path d="M3200 2123 c-50 -18 -56 -87 -9 -110 73 -36 121 68 49 107 -10 5 -20
10 -22 9 -2 0 -10 -3 -18 -6z"/>
<path d="M3081 2011 c-12 -12 -21 -32 -21 -45 0 -24 22 -55 41 -57 5 -1 15 -2
22 -3 19 -3 57 35 57 59 0 52 -63 82 -99 46z"/>
<path d="M2981 1911 c-26 -26 -27 -62 -3 -84 38 -34 102 -9 102 39 0 51 -64
80 -99 45z"/>
<path d="M3177 1912 c-37 -41 -11 -102 43 -102 61 0 80 89 24 110 -36 14 -49
12 -67 -8z"/>
<path d="M3077 1812 c-35 -39 -9 -102 41 -102 28 0 62 34 62 60 0 27 -35 60
-63 60 -13 0 -31 -8 -40 -18z"/>
<path d="M2977 1712 c-36 -40 -7 -104 43 -98 40 5 60 23 60 56 0 53 -68 81
-103 42z"/>
<path d="M3183 1722 c-6 -4 -16 -20 -22 -35 -9 -22 -7 -31 12 -53 20 -22 28
-25 56 -19 29 6 51 34 51 66 0 32 -66 61 -97 41z"/>
<path d="M3076 1614 c-25 -24 -20 -71 8 -89 43 -29 96 0 96 53 0 44 -71 69
-104 36z"/>
<path d="M2992 1528 c-43 -21 -41 -86 3 -106 50 -23 95 17 81 72 -4 17 -46 50
-59 45 -1 0 -12 -5 -25 -11z"/>
<path d="M3183 1523 c-26 -17 -32 -74 -10 -90 28 -23 59 -22 83 2 29 29 30 45
7 74 -23 28 -52 33 -80 14z"/>
<path d="M785 2431 c-197 -113 -359 -211 -370 -226 -19 -25 -20 -42 -20 -439
0 -364 2 -415 16 -437 10 -15 156 -104 373 -228 317 -181 359 -203 390 -198
18 3 190 95 381 204 270 154 350 204 362 227 13 25 15 88 14 434 -1 322 -4
409 -15 430 -12 23 -110 86 -261 168 -11 6 -116 66 -234 133 -130 75 -229 125
-250 128 -32 4 -76 -18 -386 -196z m428 -65 c51 -12 27 -21 -52 -21 -45 0 -76
4 -71 9 9 9 70 24 85 20 6 -1 22 -5 38 -8z m182 -104 c25 -14 38 -13 -200 -13
-298 0 -294 0 -268 14 31 17 439 16 468 -1z m175 -97 c22 -13 -26 -14 -405
-14 -372 0 -427 2 -405 14 38 21 774 21 810 0z m-99 -98 c-9 -9 -94 -12 -299
-13 -158 -1 -293 1 -299 3 -43 16 22 21 298 21 238 0 309 -2 300 -11z m-181
-101 c-34 -19 -227 -18 -255 0 -17 12 1 14 130 14 132 -1 147 -2 125 -14z
m-450 -139 l215 -122 -1 -250 c0 -196 -3 -249 -13 -247 -7 1 -88 46 -179 98
-92 53 -185 107 -207 119 l-40 23 -1 251 c-1 138 1 251 5 251 3 0 103 -55 221
-123z m864 92 c8 -12 12 -28 9 -37 -5 -12 -8 -11 -14 5 -4 12 -12 24 -18 28
-6 3 -11 10 -11 16 0 16 18 10 34 -12z m-117 -53 c-9 -22 21 -56 49 -56 33 0
64 17 64 35 0 8 5 15 10 15 16 0 8 -31 -12 -52 -23 -23 -22 -35 0 -78 21 -39
22 -91 3 -113 -19 -24 -23 -64 -6 -80 18 -18 27 -67 16 -85 -5 -8 -8 -1 -8 18
0 53 -54 84 -91 53 -34 -30 -37 -59 -8 -88 15 -15 31 -23 36 -20 6 3 10 4 10
1 0 -3 -9 -10 -20 -16 -17 -9 -24 -7 -38 11 -49 60 -123 8 -98 -69 7 -21 6
-23 -12 -13 -12 6 -29 11 -38 11 -24 0 -54 -29 -54 -53 0 -21 -26 -46 -49 -47
-8 0 -25 -10 -38 -22 -30 -28 -43 -15 -15 15 27 29 28 68 2 92 -26 24 -26 79
0 105 11 11 20 31 20 45 0 14 -9 33 -20 42 -28 24 -27 84 1 109 17 15 20 27
16 57 l-5 38 33 -7 c26 -4 38 -1 54 15 12 12 21 29 21 40 0 12 12 24 33 32 17
7 54 28 82 46 54 36 70 41 62 19z"/>
<path d="M1506 1814 c-9 -8 -17 -20 -17 -25 -1 -5 -2 -15 -3 -21 -3 -20 35
-58 58 -58 27 0 40 9 55 37 29 56 -48 112 -93 67z"/>
<path d="M1406 1714 c-25 -25 -20 -71 10 -90 55 -37 117 25 80 80 -19 30 -65
35 -90 10z"/>
<path d="M1602 1718 c-23 -30 -23 -56 1 -83 19 -23 28 -26 54 -21 52 12 64 78
19 108 -18 12 -63 9 -74 -4z"/>
<path d="M1311 1616 c-27 -28 -27 -60 0 -87 35 -35 99 -9 99 41 0 52 -65 82
-99 46z"/>
<path d="M1535 1632 c-47 -10 -64 -58 -34 -96 29 -37 93 -23 102 22 9 46 -25
83 -68 74z"/>
<path d="M1435 1532 c-33 -7 -45 -22 -45 -57 0 -35 13 -51 45 -56 54 -8 87 35
64 85 -12 26 -32 35 -64 28z"/>
<path d="M1310 1420 c-59 -59 21 -138 83 -83 23 22 21 58 -5 83 -28 25 -52 26
-78 0z"/>
</g>
</svg>
